<?xml version="1.0" standalone="no"?>
<!DOCTYPE svg PUBLIC "-//W3C//DTD SVG 20010904//EN"
 "http://www.w3.org/TR/2001/REC-SVG-20010904/DTD/svg10.dtd">
<svg version="1.0" xmlns="http://www.w3.org/2000/svg"
 width="600.000000pt" height="600.000000pt" viewBox="0 0 600.000000 600.000000"
 preserveAspectRatio="xMidYMid meet">
<metadata>
Created by potrace 1.16, written by Peter Selinger 2001-2019
</metadata>
<g transform="translate(0.000000,600.000000) scale(0.100000,-0.100000)"
fill="#000000" stroke="none">
<path d="M3223 5300 c-11 -5 -29 -20 -40 -35 -14 -21 -258 -311 -293 -349 -11
-11 -185 19 -290 51 -118 36 -151 39 -177 16 -11 -10 -141 -171 -288 -358
-148 -187 -282 -358 -300 -380 -297 -374 -346 -438 -320 -421 17 11 62 40 100
64 39 25 100 64 136 88 150 96 226 174 486 501 136 172 251 313 255 313 8 0
68 -119 68 -137 0 -7 7 -16 15 -19 11 -5 12 -10 2 -25 -6 -10 -17 -19 -22 -19
-40 0 -293 -189 -280 -210 2 -4 -5 -16 -18 -26 l-22 -19 19 23 c28 32 5 27
-27 -6 -15 -16 -24 -32 -20 -36 5 -4 3 -6 -2 -4 -16 5 -76 -45 -71 -59 3 -8
-1 -10 -11 -6 -12 5 -15 2 -10 -10 3 -9 1 -19 -5 -23 -7 -4 -8 -3 -4 4 11 18
-10 14 -25 -5 -12 -14 -12 -16 1 -9 8 4 -20 -24 -63 -64 -42 -40 -74 -77 -70
-82 3 -7 1 -8 -6 -4 -13 8 -108 -58 -155 -108 -16 -17 -25 -24 -21 -16 4 8 -3
4 -15 -10 -12 -14 -18 -19 -14 -11 4 9 2 12 -7 9 -8 -3 -13 -11 -11 -17 1 -7
-2 -10 -8 -6 -12 8 -71 -26 -64 -37 3 -4 -1 -5 -9 -2 -8 3 -18 0 -23 -7 -5 -8
-3 -10 7 -5 8 4 3 -2 -11 -13 -14 -11 -31 -19 -38 -16 -7 3 -10 1 -7 -5 5 -9
-23 -30 -37 -27 -4 1 -15 -5 -25 -13 -10 -9 -45 -31 -78 -50 -33 -19 -66 -41
-73 -49 -11 -13 -12 -14 -7 -1 4 8 -11 -4 -34 -27 -48 -49 -59 -85 -41 -127 8
-17 15 -65 18 -107 l3 -77 -30 -13 c-16 -7 -27 -17 -25 -21 3 -4 0 -8 -6 -8
-7 0 -10 -6 -7 -14 8 -21 -28 -58 -55 -56 -49 4 -56 1 -60 -35 -3 -31 -1 -36
19 -41 26 -7 33 -51 10 -60 -7 -2 -67 -1 -133 4 -73 6 -97 10 -62 11 l56 1 -5
43 c-3 23 -6 48 -6 55 -1 17 -43 15 -61 -4 -9 -8 -21 -12 -28 -8 -8 5 -9 2 -5
-10 5 -14 3 -17 -8 -12 -10 4 -20 -5 -30 -30 -13 -32 -18 -35 -42 -30 -39 8
-53 -4 -55 -48 -1 -33 -4 -37 -22 -30 -55 18 -557 27 -574 9 -3 -3 15 -6 39
-7 57 -2 81 -4 159 -17 36 -5 122 -11 193 -13 70 -1 131 -5 136 -8 5 -3 11
-14 13 -25 2 -17 -3 -20 -32 -22 -28 -2 -31 -1 -15 7 14 6 16 9 5 10 -46 4
-111 8 -250 14 -110 6 -177 14 -230 29 -62 18 -70 22 -50 28 21 6 19 7 -13 8
-37 1 -38 0 -35 -31 3 -30 8 -35 73 -59 58 -23 92 -28 217 -34 115 -6 148 -10
148 -21 0 -7 -15 -17 -32 -22 -26 -6 -34 -14 -36 -36 -5 -40 11 -46 97 -39 62
5 75 4 83 -10 10 -20 78 -23 109 -6 25 13 79 2 79 -17 0 -8 5 -14 10 -14 6 0
10 9 10 20 0 17 4 19 28 13 39 -11 94 -6 103 9 6 9 34 13 93 13 55 0 89 4 97
13 18 17 26 15 32 -8 5 -20 25 -25 91 -20 16 1 33 -4 38 -12 7 -10 11 -10 15
0 7 17 53 16 53 -2 0 -9 13 -13 43 -13 34 0 41 -3 39 -16 -2 -10 2 -17 8 -17
5 0 10 14 10 31 l0 31 98 -3 97 -4 3 28 c3 23 8 27 33 27 26 0 34 -9 30 -32 0
-5 3 -8 9 -8 5 0 10 9 10 20 0 15 7 20 26 20 17 0 28 6 31 20 3 11 9 20 14 20
5 0 9 16 9 36 0 21 -4 33 -10 29 -16 -10 -50 5 -50 21 0 16 -55 20 -65 4 -3
-5 -19 -10 -35 -10 -36 0 -48 -27 -17 -40 21 -8 21 -9 -4 -9 -15 -1 -29 6 -33
14 -3 8 -18 16 -33 16 l-28 1 30 7 c24 5 29 11 27 28 -3 22 -1 22 135 25 l138
3 6 38 c3 21 11 43 16 48 6 6 8 28 6 50 -5 35 -3 39 16 39 17 0 21 6 21 30 0
21 -5 30 -16 30 -12 0 -15 6 -10 26 5 20 3 27 -13 31 -12 3 -18 9 -15 14 3 5
0 9 -5 9 -6 0 -11 -7 -11 -15 0 -14 -3 -14 -24 1 -14 8 -29 16 -33 16 -4 0
-10 2 -12 4 -2 2 1 4 6 4 6 0 40 35 75 78 316 381 640 775 659 801 12 17 24
29 26 27 5 -5 163 -1091 163 -1120 0 -2 -19 -7 -42 -11 -57 -8 -95 -24 -102
-40 -7 -20 -7 -803 0 -843 4 -19 2 -32 -4 -32 -16 0 -20 -32 -7 -60 7 -14 13
-65 14 -115 1 -49 7 -97 12 -106 13 -26 11 -79 -3 -79 -9 0 -8 -4 2 -10 12 -8
13 -13 2 -30 -10 -16 -10 -20 0 -20 8 0 9 -3 3 -8 -14 -10 -19 -46 -6 -37 13
7 14 -14 2 -34 -6 -10 -13 -10 -28 -3 -15 8 -24 8 -33 -1 -10 -10 -11 -9 -5 3
4 8 15 24 24 35 10 13 11 16 1 8 -8 -7 -22 -13 -32 -13 -10 0 -18 -5 -18 -12
0 -7 -7 -5 -18 5 -14 13 -28 14 -75 8 -52 -7 -60 -6 -73 13 -13 19 -13 22 13
34 26 12 26 13 3 7 -14 -3 -38 -8 -55 -11 -27 -5 -26 -3 10 15 22 10 33 20 25
20 -16 1 -80 -35 -80 -45 0 -11 111 -558 121 -595 5 -21 11 -63 14 -95 6 -72
29 -95 122 -120 58 -16 103 -17 466 -10 221 3 670 11 997 16 969 15 1630 30
1708 40 76 9 115 30 105 57 -3 8 0 25 7 37 6 13 10 32 8 42 -5 28 -268 224
-293 218 -11 -2 -14 -1 -7 2 10 5 10 9 1 20 -14 17 -33 19 -23 2 4 -7 3 -8 -5
-4 -6 4 -9 11 -7 15 3 4 -8 18 -24 30 -18 13 -27 16 -24 7 3 -8 0 -17 -5 -21
-6 -3 -9 -11 -6 -16 3 -5 -1 -6 -9 -3 -13 5 -16 22 -16 80 0 43 -4 74 -10 74
-5 0 -9 -5 -7 -11 5 -24 -23 -19 -29 5 -9 38 4 67 29 65 57 -4 180 4 157 10
-25 7 -25 7 -2 13 18 5 22 13 20 40 -1 18 2 71 6 118 9 101 3 111 -72 115 -45
2 -109 25 -87 31 6 1 58 6 118 9 77 5 107 10 107 20 0 10 -26 13 -102 14 -83
1 -105 5 -115 18 -17 22 -11 26 21 14 14 -6 34 -7 43 -4 15 6 14 8 -6 13 -22
5 -23 7 -8 22 16 15 16 17 -4 23 -17 6 -20 12 -15 37 3 17 6 39 6 49 0 15 7
19 34 19 30 0 34 3 40 34 4 18 5 40 3 47 -2 8 -2 11 0 7 8 -13 33 4 33 23 0
15 -5 17 -30 13 -19 -4 -30 -2 -30 5 0 6 9 11 20 11 24 0 24 0 3 67 -22 70
-55 107 -89 100 -14 -2 -31 1 -37 7 -24 23 -90 57 -106 54 -9 -1 -28 10 -43
25 -15 15 -37 27 -50 26 -22 -1 -21 -1 4 -10 15 -6 33 -24 40 -40 11 -26 18
-29 56 -29 37 0 50 -6 78 -34 19 -19 37 -48 40 -65 7 -32 34 -44 34 -14 0 24
16 4 24 -29 6 -25 4 -28 -19 -28 -24 0 -25 -2 -25 -65 0 -36 3 -64 8 -64 20 3
32 -2 32 -15 0 -17 -32 -26 -51 -16 -8 5 -36 4 -63 -1 -27 -5 -51 -7 -53 -5
-2 2 -1 20 2 39 6 31 11 36 39 39 23 2 32 8 34 26 2 14 8 20 15 15 7 -4 6 1
-2 10 -15 18 -26 23 -16 7 3 -5 0 -10 -8 -10 -8 0 -26 -11 -41 -25 -16 -14
-33 -22 -39 -18 -8 5 -3 10 13 14 16 5 19 7 7 8 -16 1 -16 3 -1 26 9 13 14 30
11 37 -3 8 -6 4 -7 -7 0 -11 -9 6 -20 38 -18 56 -62 127 -80 127 -5 0 -22 -11
-37 -24 l-30 -25 -12 50 c-7 28 -22 59 -34 70 -30 28 -33 15 -5 -20 23 -27 45
-107 33 -119 -3 -3 -12 3 -20 14 -13 16 -14 16 -9 2 5 -16 1 -17 -42 -11 -27
3 -51 10 -52 15 -2 4 -8 6 -13 2 -12 -7 -11 -1 1 31 9 23 8 26 -8 21 -15 -5
-21 3 -34 41 l-15 48 1 -45 c1 -25 -3 -56 -8 -69 -7 -19 -5 -23 7 -18 11 4 13
0 9 -15 l-5 -21 -16 21 c-12 15 -30 22 -66 24 l-50 3 2 45 c3 39 0 46 -21 56
-20 9 -25 8 -30 -5 -3 -9 -9 -22 -12 -28 -3 -7 1 -13 9 -13 8 0 17 -7 21 -15
3 -8 1 -14 -5 -12 -6 1 -16 -16 -24 -38 -8 -22 -19 -41 -25 -43 -18 -6 0 -22
26 -22 18 0 24 -5 24 -22 0 -13 -7 -32 -15 -42 -8 -11 -15 -35 -15 -53 0 -26
-3 -31 -17 -26 -13 5 -15 2 -10 -12 10 -24 -11 -47 -36 -39 -13 4 -17 2 -13
-5 4 -6 14 -11 22 -11 12 0 12 -2 2 -14 -7 -7 -20 -11 -28 -9 -8 3 -2 -4 13
-15 37 -26 18 -37 -23 -15 l-32 18 7 75 c3 41 10 79 16 84 15 16 11 112 -5
126 -8 6 -13 17 -10 25 3 7 1 16 -5 20 -18 11 -12 97 14 219 14 63 22 130 20
148 -4 21 -3 27 3 15 5 -12 8 1 8 38 1 30 0 54 -1 53 -5 -5 -46 -182 -51 -218
-3 -19 -12 -73 -20 -119 -9 -46 -13 -94 -10 -106 3 -13 2 -27 -4 -30 -15 -9
-12 99 5 175 22 98 17 105 -10 15 -18 -58 -23 -93 -19 -126 5 -37 3 -51 -12
-66 -11 -11 -24 -28 -30 -39 -19 -31 -29 -7 -12 29 14 30 14 34 -10 70 l-26
39 17 63 c29 108 23 129 -68 275 l-35 55 33 3 c92 7 197 25 197 34 0 6 -7 7
-16 4 -34 -13 -206 -26 -222 -17 -21 12 -15 14 72 30 82 15 176 51 176 67 0
24 -44 26 -122 5 -42 -11 -97 -23 -122 -26 -51 -8 -52 -7 -81 100 -8 28 -14
40 -14 29 -1 -12 9 -53 21 -90 11 -38 21 -77 20 -87 0 -9 3 -15 8 -12 4 3 10
-2 14 -10 3 -8 1 -15 -4 -15 -10 0 17 -55 65 -135 30 -48 34 -82 5 -45 -10 14
-22 21 -26 17 -4 -4 -2 -13 4 -19 7 -7 12 -19 12 -27 -1 -10 -6 -7 -15 9 -8
14 -12 33 -8 44 3 10 1 16 -4 13 -8 -5 -36 58 -38 83 -1 3 -6 14 -12 25 -5 11
-18 45 -28 75 -10 30 -27 72 -39 94 l-21 39 -5 -39 c-4 -31 6 -67 46 -174 29
-74 65 -164 82 -200 24 -51 31 -86 37 -162 5 -64 4 -98 -3 -98 -12 0 -22 24
-22 53 0 21 -1 21 -20 -3 l-20 -25 0 26 c0 15 -7 29 -15 33 -8 3 -15 2 -15 -2
-1 -20 -31 -212 -39 -244 -7 -28 -5 -40 7 -52 15 -15 15 -16 -1 -16 -11 0 -17
-8 -17 -25 0 -14 5 -25 11 -25 8 0 8 -4 0 -14 -6 -7 -12 -32 -14 -55 -1 -22
-5 -41 -8 -41 -3 0 -11 -31 -18 -69 -8 -44 -25 -90 -46 -125 -29 -49 -31 -56
-17 -70 17 -17 17 -16 2 -236 -10 -139 -18 -160 -59 -160 -10 0 -7 5 8 13 34
17 41 42 10 34 -13 -4 -34 -7 -47 -7 -15 0 -21 -4 -16 -12 5 -7 3 -8 -5 -4 -7
5 -20 1 -29 -6 -9 -8 -24 -18 -32 -22 -19 -9 30 35 56 50 28 17 7 46 -42 60
l-39 11 4 84 c2 46 6 88 8 93 3 5 0 7 -7 4 -16 -5 -16 -8 -24 -183 -4 -77 -9
-159 -12 -182 -5 -41 11 -63 18 -26 3 14 5 14 18 -3 8 -10 11 -16 6 -12 -4 3
-16 -2 -26 -12 -17 -17 -24 -18 -52 -7 -28 10 -30 12 -11 15 15 2 20 8 16 19
-4 10 -2 14 4 10 6 -4 10 50 11 156 0 89 3 172 6 185 3 16 1 22 -7 19 -14 -4
-14 -6 -16 -86 l-1 -58 -117 34 c-65 18 -122 35 -128 36 -19 6 108 57 143 57
52 0 33 10 -49 26 -40 7 -76 19 -79 25 -4 6 -10 10 -14 10 -20 -3 -26 0 -21 9
4 6 -1 7 -11 3 -11 -4 -15 -3 -10 5 3 6 1 14 -5 18 -8 4 -9 3 -5 -4 4 -7 4
-12 1 -12 -28 0 -198 138 -188 153 3 6 1 7 -5 3 -15 -9 -84 43 -75 57 3 6 1 7
-6 3 -13 -9 -44 12 -36 24 3 4 -1 7 -8 6 -6 0 -13 4 -15 9 -5 16 -34 45 -45
45 -6 0 -2 -7 9 -15 10 -8 15 -15 10 -15 -17 0 -86 62 -80 72 4 6 2 8 -3 5
-11 -7 -36 16 -28 25 3 3 -3 11 -12 19 -16 13 -17 12 -4 -4 7 -9 9 -17 4 -17
-11 0 -82 72 -82 83 1 5 -55 59 -122 120 -68 61 -111 95 -95 75 15 -20 42 -48
59 -61 54 -41 102 -87 93 -87 -16 0 -136 104 -171 148 -35 45 -51 36 -17 -9 9
-13 22 -33 29 -44 6 -11 16 -19 23 -17 6 1 8 -2 5 -9 -9 -13 -51 24 -71 63
-26 50 -10 144 31 178 21 17 29 7 14 -18 -28 -45 6 -88 223 -285 53 -48 155
-133 226 -190 376 -297 359 -287 467 -287 80 -1 80 -1 53 -18 -36 -21 -35 -29
3 -37 24 -5 36 -2 53 14 26 24 66 28 66 6 0 -8 3 -15 8 -15 18 0 125 69 166
107 52 49 68 77 87 151 10 42 15 49 21 35 6 -12 7 -7 3 15 -2 19 0 32 6 32 6
0 9 20 8 50 -2 27 0 53 4 56 4 4 7 12 7 18 0 6 -5 4 -10 -4 -8 -12 -10 -10
-10 8 0 13 3 21 8 19 12 -8 10 67 -2 75 -8 5 -8 8 0 8 6 0 9 12 7 28 -1 15
-12 100 -23 190 -11 90 -20 185 -20 212 0 27 -5 61 -12 75 -9 20 -8 66 6 208
9 100 18 202 21 227 3 31 1 39 -5 25 -7 -16 -9 -11 -9 22 -1 23 -6 45 -11 48
-6 4 -8 10 -5 15 9 15 -33 50 -59 50 -35 0 -57 -10 -50 -24 4 -6 0 -4 -8 4
-91 90 -278 415 -304 526 -24 104 -53 192 -85 259 -25 54 -31 89 -60 345 -17
157 -31 314 -31 349 0 55 -3 67 -24 88 -22 22 -32 25 -72 20 -26 -3 -57 -8
-68 -12 -27 -8 -28 -5 -50 150 -15 111 -22 133 -43 157 -29 31 -66 41 -98 28z
m26 -720 c22 -143 70 -465 146 -973 l46 -308 -79 -87 c-105 -114 -163 -167
-97 -89 27 32 58 65 69 72 11 8 18 16 15 19 -2 2 -60 -7 -129 -20 -69 -13
-144 -23 -166 -24 -48 0 -54 10 -54 98 0 30 -32 291 -70 580 -39 290 -74 558
-80 595 -5 38 -6 75 -3 83 3 8 33 37 67 66 39 32 53 49 39 46 -26 -7 -30 4 -8
22 9 7 26 9 45 5 20 -4 43 -1 65 10 84 39 160 63 166 52 4 -7 16 -73 28 -147z
m-696 -48 c-2 -10 -73 -102 -156 -204 -84 -102 -215 -264 -292 -359 -77 -95
-184 -226 -238 -291 l-97 -118 -55 0 c-30 0 -55 5 -55 10 0 6 -21 10 -47 11
-92 1 -92 -1 47 174 79 99 144 172 171 189 110 72 232 173 445 370 111 103
268 236 279 236 2 0 1 -8 -2 -18z m1007 -227 c0 -5 -16 8 -36 30 l-36 40 32
-43 c17 -23 36 -40 40 -37 5 3 25 -19 45 -50 45 -72 46 -86 0 -17 -20 28 -38
52 -41 52 -3 0 3 -12 14 -27 58 -83 116 -228 128 -320 4 -32 13 -75 20 -95 19
-54 174 -319 183 -313 5 2 42 -39 83 -93 78 -102 92 -122 85 -122 -3 0 -40 47
-83 104 -43 58 -80 103 -83 101 -2 -3 16 -30 40 -61 24 -31 53 -70 64 -88 11
-18 45 -63 75 -101 85 -105 85 -104 72 -117 -8 -8 -12 -8 -12 -2 0 6 -22 39
-50 73 -45 56 -50 60 -50 36 0 -14 5 -35 10 -46 8 -14 7 -19 -1 -19 -12 0 -3
-14 9 -16 16 -1 89 -82 83 -92 -4 -7 -12 -6 -23 2 -10 7 -14 17 -10 21 4 5 1
5 -6 1 -14 -9 -60 24 -55 40 2 6 -6 19 -18 30 -18 15 -21 16 -17 3 9 -24 1
-30 -107 -84 -109 -54 -154 -82 -172 -105 -41 -52 -44 -54 -24 -15 10 22 37
57 59 79 l41 39 -29 51 c-26 46 -32 73 -55 271 -47 399 -54 470 -53 515 1 61
-57 199 -130 307 -76 113 -84 127 -71 131 6 3 5 10 -3 20 -6 10 9 -3 35 -28
26 -24 47 -49 47 -55z m548 -1247 c37 -20 42 -26 42 -57 0 -63 -8 -76 -57 -93
-41 -15 -49 -15 -67 -2 -14 9 -48 14 -104 14 l-83 0 3 47 c3 47 3 47 71 86 38
22 74 48 80 58 11 17 13 17 42 -7 16 -13 49 -34 73 -46z m33 -324 c4 -87 14
-214 23 -281 9 -67 16 -155 14 -195 l-3 -73 -21 21 c-11 11 -28 23 -37 27 -9
3 -17 11 -17 17 0 5 -7 10 -17 10 -14 0 -14 -2 2 -20 10 -11 23 -20 29 -20 6
0 24 -16 39 -35 34 -43 24 -45 -23 -4 -19 17 -46 38 -58 46 l-24 16 7 296 c4
163 8 305 7 317 0 20 39 45 63 40 6 -2 13 -69 16 -162z m-1427 -860 c3 -9 6
-31 6 -50 0 -41 24 -54 97 -54 l45 0 -7 -72 c-5 -40 -7 -100 -7 -133 1 -37 -2
-55 -7 -46 -6 9 -11 -16 -16 -69 -5 -53 -10 -78 -16 -69 -6 10 -9 3 -9 -20 0
-33 1 -34 15 -15 14 18 14 18 8 -3 -5 -23 -33 -33 -33 -12 0 5 -5 7 -11 3 -22
-13 10 -29 71 -35 20 -1 18 -3 -10 -8 -33 -6 -90 13 -90 31 0 4 -48 23 -107
42 -191 61 -191 47 -8 126 l160 69 5 48 c6 62 0 124 -11 117 -5 -3 -7 -10 -4
-15 8 -13 -9 -11 -22 2 -8 8 -17 8 -33 -1 -20 -10 -22 -10 -17 3 3 10 -1 17
-14 20 -10 3 -19 11 -19 19 0 10 3 9 10 -2 6 -9 10 -10 10 -3 0 20 -20 25 -27
7 -4 -11 1 -22 12 -30 14 -10 16 -17 8 -25 -24 -24 -33 3 -33 97 0 93 0 94 24
94 13 0 27 -7 30 -16z m2132 -46 l149 -3 -4 -85 c-3 -47 -5 -101 -5 -120 l-1
-35 179 3 178 2 -6 -27 c-3 -16 -9 -52 -13 -81 -4 -35 -9 -49 -14 -40 -6 9 -9
6 -10 -12 -1 -17 -3 -19 -6 -7 -2 9 -11 17 -20 17 -9 0 -13 -6 -10 -14 4 -10
-5 -12 -38 -10 -25 2 -47 -1 -50 -6 -3 -6 3 -10 14 -10 12 0 21 -6 21 -13 0
-23 -11 -27 -34 -12 -11 8 -43 14 -71 13 -59 -1 -117 10 -110 22 6 9 -34 20
-90 25 -29 3 -34 1 -20 -5 11 -5 14 -9 7 -9 -22 -1 -52 19 -52 34 0 8 -4 15
-10 15 -5 0 -10 -9 -10 -20 0 -11 -3 -20 -7 -20 -5 0 -8 30 -8 67 l0 68 -50 5
-50 5 -3 45 c-1 25 1 80 6 123 6 57 5 77 -4 77 -6 0 -18 8 -25 18 -12 15 -12
16 2 5 10 -8 66 -13 165 -15z m-1285 -62 c48 -28 64 -62 23 -52 -21 6 -24 3
-24 -24 0 -35 3 -35 -82 -13 l-68 17 0 48 0 48 54 0 c39 0 66 -7 97 -24z m927
-176 c40 0 82 -5 92 -10 10 -6 21 -6 24 -1 4 6 87 5 92 -2 6 -8 -10 -115 -17
-111 -5 3 -9 1 -9 -5 0 -5 6 -12 13 -14 6 -3 -57 -6 -141 -6 l-153 -1 2 85 c2
58 6 82 13 75 5 -5 43 -10 84 -10z m-1018 -37 c19 -7 49 -13 67 -13 40 0 309
-76 346 -98 18 -11 27 -25 27 -42 0 -21 -13 -33 -75 -68 -41 -24 -73 -48 -70
-53 4 -5 -1 -6 -9 -3 -8 3 -27 -3 -43 -14 -15 -11 -73 -47 -129 -81 -137 -83
-134 -83 -449 23 -202 67 -249 86 -247 100 2 9 -4 19 -13 22 -12 5 -15 22 -14
83 0 42 3 93 7 115 l7 39 13 -37 13 -36 158 0 c87 0 199 3 249 6 87 7 92 8 92
30 0 34 11 55 24 47 6 -5 27 -13 46 -20z"/>
<path d="M3908 3378 c-10 -12 -18 -30 -18 -40 0 -30 40 -125 60 -143 20 -18
21 -18 46 6 19 18 24 30 19 49 -3 14 -6 36 -6 48 1 13 -4 31 -10 40 -8 13 -9
11 -4 -13 4 -25 1 -22 -22 19 -33 58 -42 63 -65 34z"/>
</g>
</svg>
