<?xml version="1.0" standalone="no"?>
<!DOCTYPE svg PUBLIC "-//W3C//DTD SVG 20010904//EN"
 "http://www.w3.org/TR/2001/REC-SVG-20010904/DTD/svg10.dtd">
<svg version="1.0" xmlns="http://www.w3.org/2000/svg"
 width="900.000000pt" height="675.000000pt" viewBox="0 0 900.000000 675.000000"
 preserveAspectRatio="xMidYMid meet">
<metadata>
Created by potrace 1.10, written by Peter Selinger 2001-2011
</metadata>
<g transform="translate(0.000000,675.000000) scale(0.100000,-0.100000)"
fill="#000000" stroke="none">
<path d="M3824 6445 c-41 -21 -54 -23 -84 -15 -85 24 -236 6 -274 -32 -10 -10
-22 -18 -28 -18 -6 0 -29 -15 -52 -34 -23 -18 -59 -42 -81 -54 -22 -11 -71
-55 -110 -98 -38 -43 -83 -92 -99 -108 -16 -17 -39 -47 -52 -68 -13 -20 -28
-39 -34 -43 -5 -3 -10 -22 -10 -42 0 -32 -8 -44 -61 -92 -34 -31 -67 -68 -75
-83 -20 -39 -42 -108 -45 -143 -5 -54 24 -165 42 -165 5 0 9 -21 10 -47 0 -27
4 -70 9 -98 5 -27 15 -86 21 -130 10 -72 30 -131 48 -145 4 -3 15 -27 26 -55
18 -49 76 -115 101 -115 11 0 12 25 7 129 l-6 129 30 29 c16 15 37 40 46 56
17 26 17 29 -2 72 -22 50 -21 139 3 230 13 49 12 53 -9 73 -26 25 -45 13 -45
-28 -1 -22 -2 -23 -11 -7 -5 9 -16 17 -24 17 -8 0 -19 8 -24 18 -11 18 -13 17
-108 -92 -33 -37 -50 -22 -33 31 19 57 32 82 56 106 32 33 45 64 38 91 -3 14
3 42 16 72 27 58 26 58 39 50 10 -7 1 -44 -24 -101 -15 -31 -12 -45 9 -45 26
0 47 48 45 105 -2 45 2 59 19 76 12 11 22 24 22 29 0 5 25 36 56 69 55 60 57
61 113 62 31 1 70 4 86 8 l30 7 -28 18 c-22 15 -38 17 -85 12 -111 -13 -107
-14 -104 14 3 31 51 82 70 75 8 -3 30 5 50 17 33 20 40 21 110 11 41 -6 78
-16 82 -22 5 -9 14 -9 34 -1 l28 10 -24 25 c-22 22 -35 25 -111 28 -48 2 -89
6 -93 9 -6 7 76 48 95 48 5 0 14 6 18 13 4 6 16 18 25 26 16 12 22 8 54 -27
36 -41 88 -62 105 -45 5 5 -8 26 -32 52 -49 50 -46 70 11 73 22 0 45 1 52 2
23 2 18 -22 -7 -28 -14 -4 -25 -10 -25 -14 0 -13 99 -72 132 -79 18 -3 38 -10
45 -15 14 -12 33 -2 33 16 0 13 -68 42 -122 53 -28 5 -46 31 -25 38 6 2 29 6
50 10 32 5 37 3 37 -14 0 -24 17 -29 105 -27 66 1 70 2 68 23 -2 18 7 26 41
42 24 10 58 22 75 26 17 4 31 11 31 17 0 5 12 7 30 3 23 -5 30 -3 30 8 0 21
-110 32 -155 16 -26 -10 -42 -10 -73 -1 -52 16 -51 16 -108 -13z m-653 -408
c-13 -13 -26 -3 -16 12 3 6 11 8 17 5 6 -4 6 -10 -1 -17z m-73 -596 c4 -28
-13 -20 -21 9 -3 14 -1 20 6 17 7 -2 14 -14 15 -26z m-5 -144 c-15 -12 -36
-20 -46 -19 -10 2 -25 -5 -32 -15 -13 -17 -14 -17 -20 2 -4 11 -13 34 -20 52
-16 37 -4 54 23 30 9 -8 30 -17 46 -20 25 -4 30 -1 40 25 l11 30 13 -32 c12
-30 11 -33 -15 -53z"/>
<path d="M4180 6421 c0 -11 25 -21 56 -21 13 0 24 -4 24 -9 0 -5 10 -12 23
-16 14 -4 17 -8 9 -12 -7 -3 -28 2 -46 11 -19 9 -40 16 -48 16 -7 0 -21 7 -31
14 -19 15 -52 11 -77 -8 -17 -14 -75 -42 -104 -51 -41 -12 4 -27 95 -31 155
-7 220 -12 226 -18 15 -15 51 -4 61 19 10 22 13 23 37 11 15 -8 34 -29 43 -47
14 -26 26 -35 63 -45 26 -6 52 -8 59 -4 13 8 5 50 -9 50 -4 0 -22 15 -40 33
-54 52 -83 67 -131 67 -29 0 -62 9 -92 25 -46 24 -118 34 -118 16z"/>
<path d="M3615 6231 c-3 -5 10 -26 28 -46 30 -33 41 -37 88 -40 30 -2 68 -11
84 -19 34 -18 95 -21 95 -6 0 6 -12 15 -27 21 -16 6 -60 26 -100 45 -77 37
-93 40 -110 23 -13 -13 -33 -4 -33 17 0 16 -16 19 -25 5z"/>
<path d="M4010 6230 c-20 -13 0 -32 28 -27 32 6 52 -1 52 -19 0 -9 -11 -14
-32 -14 -71 0 -58 -17 44 -55 57 -21 117 -50 133 -65 17 -14 48 -38 70 -52 37
-23 54 -46 69 -92 6 -16 13 -18 62 -12 37 4 61 3 70 -5 10 -8 35 -10 74 -6 32
4 62 3 65 -2 3 -5 19 -2 36 6 30 15 33 15 48 -6 11 -14 23 -20 34 -15 11 4 19
0 23 -10 8 -21 24 -20 40 1 17 24 32 8 16 -17 -7 -11 -12 -36 -12 -55 0 -32
-2 -35 -29 -35 -34 0 -61 -31 -61 -68 0 -18 4 -22 18 -18 24 8 58 -25 67 -64
10 -46 -4 -126 -26 -146 -10 -9 -19 -26 -19 -36 0 -14 -5 -18 -19 -13 -10 3
-23 -1 -30 -8 -12 -16 -1 -49 32 -99 15 -21 17 -37 11 -73 -11 -80 -45 -71
-93 24 -44 87 -66 127 -79 142 -50 59 -102 136 -102 151 0 10 -9 23 -20 30
-13 9 -20 24 -20 45 0 17 -5 35 -11 38 -5 4 -14 18 -19 31 -8 20 -15 23 -34
18 -42 -10 -54 38 -19 78 13 15 12 18 -6 28 -28 14 -44 4 -39 -25 3 -13 -2
-26 -11 -32 -18 -11 -69 -159 -58 -169 3 -3 20 -3 37 1 23 5 35 15 42 35 16
48 68 50 68 4 0 -14 7 -27 15 -31 13 -4 14 -16 9 -63 -5 -50 -3 -64 20 -110
14 -28 26 -68 26 -87 0 -31 8 -44 59 -92 78 -74 94 -108 99 -208 3 -59 8 -83
17 -83 8 0 21 -20 31 -45 14 -39 16 -70 11 -223 -3 -102 -10 -190 -17 -207 -7
-16 -13 -69 -14 -116 -3 -91 -2 -89 -124 -359 -33 -72 -80 -134 -149 -193 -66
-56 -90 -70 -109 -63 -8 3 -30 -6 -50 -19 -43 -29 -48 -30 -68 -10 -8 8 -19
15 -25 15 -20 0 -90 -49 -107 -75 -9 -14 -26 -25 -39 -25 -12 0 -38 -6 -57
-14 -22 -10 -39 -11 -49 -5 -7 5 -26 9 -41 9 -15 0 -36 9 -47 21 -11 12 -25
19 -33 17 -7 -3 -21 6 -31 19 -22 27 -43 29 -68 7 -17 -15 -22 -15 -64 5 -25
12 -48 28 -51 36 -4 8 -11 15 -18 15 -17 0 -86 69 -88 89 -1 9 -2 23 -3 31 -1
18 -50 95 -82 131 -13 14 -48 75 -79 135 -58 114 -81 147 -95 138 -12 -7 -12
-61 0 -68 5 -3 12 -23 16 -43 4 -21 20 -66 36 -100 16 -34 29 -65 29 -68 0 -3
17 -29 38 -58 21 -29 47 -73 56 -99 16 -40 64 -98 82 -98 3 0 16 -13 30 -29
13 -16 45 -37 69 -47 25 -9 45 -20 45 -25 0 -4 10 -11 22 -15 12 -4 30 -17 41
-30 10 -14 33 -26 55 -29 20 -4 47 -11 58 -17 12 -5 31 -7 43 -3 12 3 37 1 57
-5 29 -10 47 -9 92 3 32 9 86 19 120 23 45 5 72 14 92 30 15 13 32 24 38 24
15 0 141 62 182 89 19 13 55 48 80 79 25 30 70 85 102 122 44 54 61 85 78 142
12 40 26 83 30 95 5 12 12 49 16 82 4 34 11 64 15 67 5 3 9 25 9 49 0 74 11
89 79 108 33 9 66 24 73 33 7 9 23 27 36 41 23 24 22 43 -2 43 -7 0 -26 -15
-43 -33 -28 -31 -34 -33 -74 -28 -41 6 -44 8 -47 38 -3 34 18 84 51 121 17 18
28 21 52 16 30 -6 74 -48 75 -71 0 -22 38 -14 46 9 20 64 22 290 3 381 -13 64
-35 85 -69 67 -19 -10 -27 -49 -14 -63 14 -13 52 -138 58 -190 9 -69 1 -102
-31 -122 l-25 -17 9 34 c4 18 8 56 8 85 0 40 -4 55 -20 67 -20 14 -81 12 -99
-5 -13 -12 -46 19 -46 42 0 10 5 30 12 44 9 21 9 31 0 46 -15 23 -15 39 -2 39
6 0 10 -7 10 -15 0 -33 36 -8 69 48 13 20 26 37 30 37 15 0 40 76 45 140 3 36
10 94 16 130 15 81 13 162 -5 209 -7 20 -16 62 -19 93 l-6 56 38 19 c34 16 37
21 34 53 -2 19 -10 39 -18 43 -8 4 -14 19 -14 31 0 27 -21 39 -55 30 -12 -3
-26 -1 -29 4 -9 15 4 42 20 42 8 0 14 4 14 8 0 21 -39 41 -85 44 -44 3 -50 6
-53 27 -3 15 3 30 14 38 16 12 14 13 -18 13 -41 0 -56 14 -38 35 8 9 19 11 40
5 31 -9 50 3 50 31 0 25 -37 34 -65 15 -33 -22 -68 -20 -89 3 -10 11 -24 17
-32 14 -8 -3 -26 2 -40 12 -17 11 -35 14 -52 10 -26 -6 -27 -7 -7 -22 11 -8
32 -19 48 -25 17 -6 27 -17 27 -30 0 -18 -4 -19 -52 -13 -61 8 -68 13 -72 49
-4 35 -15 45 -27 23 -6 -9 -15 -17 -22 -17 -7 -1 -23 -9 -35 -20 l-24 -20 22
-30 c12 -16 27 -30 34 -30 8 0 19 -7 26 -15 7 -9 21 -13 34 -9 15 3 33 -5 61
-29 l39 -34 -31 -17 c-18 -9 -40 -16 -50 -16 -17 0 -184 141 -191 161 -2 5 -9
9 -16 9 -7 0 -22 11 -34 25 -12 14 -26 25 -32 25 -5 0 -10 7 -10 15 0 8 -12
17 -27 21 -16 3 -56 14 -89 24 -34 9 -67 14 -74 10z m155 -70 c3 -5 -3 -10
-14 -10 -12 0 -21 5 -21 10 0 6 6 10 14 10 8 0 18 -4 21 -10z m495 -90 c10 -6
11 -12 5 -19 -13 -12 -59 5 -50 19 8 12 25 13 45 0z m80 -129 c15 -29 12 -33
-12 -19 -13 7 -25 14 -27 15 -6 3 10 23 19 23 5 0 14 -9 20 -19z m110 -247 c0
-8 -4 -14 -10 -14 -5 0 -10 9 -10 21 0 11 5 17 10 14 6 -3 10 -13 10 -21z
m-23 -964 c-1 -19 -8 -25 -27 -25 -20 0 -26 6 -28 29 -2 15 -1 40 3 54 l6 26
25 -30 c14 -17 23 -39 21 -54z"/>
<path d="M3252 6134 c-28 -21 16 -31 86 -21 63 9 84 26 35 28 -16 1 -46 2 -67
3 -21 0 -46 -4 -54 -10z"/>
<path d="M3920 6100 c0 -5 9 -10 21 -10 11 0 17 5 14 10 -3 6 -13 10 -21 10
-8 0 -14 -4 -14 -10z"/>
<path d="M3716 6077 c-26 -19 -14 -34 50 -62 51 -23 61 -24 251 -21 109 2 200
4 203 5 15 4 -30 21 -56 21 -17 0 -47 6 -65 13 -22 9 -69 13 -134 11 -95 -3
-127 3 -215 40 -9 4 -24 0 -34 -7z"/>
<path d="M3464 6069 c-7 -12 -8 -11 56 -61 25 -19 57 -38 71 -41 33 -8 109
-85 109 -111 0 -18 -7 -21 -39 -21 -22 -1 -50 -6 -63 -12 -13 -6 -36 -14 -52
-18 -45 -10 -23 -18 61 -21 43 -2 100 -9 126 -14 32 -7 79 -7 144 1 53 6 108
7 122 3 14 -4 31 -6 36 -4 49 14 87 16 102 4 25 -19 41 -17 70 6 14 11 34 20
44 20 30 0 76 32 87 63 24 64 -8 76 -114 42 -43 -14 -95 -25 -114 -25 -19 1
-60 -6 -90 -15 -38 -10 -74 -13 -115 -9 -106 11 -149 30 -217 99 -51 50 -71
64 -105 70 -24 4 -43 11 -43 16 0 7 -51 39 -64 39 -3 0 -8 -5 -12 -11z"/>
<path d="M4957 6002 c-23 -25 -21 -32 8 -32 13 0 29 8 34 19 18 33 -15 43 -42
13z"/>
<path d="M3298 5951 c-72 -91 -91 -124 -95 -165 -6 -46 9 -86 31 -86 15 0 26
30 26 76 0 19 6 34 15 38 8 3 15 16 15 29 0 26 89 117 115 117 8 0 15 5 15 10
0 6 -22 10 -49 10 -42 0 -52 -4 -73 -29z"/>
<path d="M3445 5960 c3 -5 1 -19 -5 -30 -14 -27 13 -39 38 -18 9 9 24 18 32
21 8 3 3 6 -13 6 -15 1 -30 8 -33 16 -4 8 -10 15 -16 15 -5 0 -6 -4 -3 -10z"/>
<path d="M3900 5920 c0 -12 63 -24 89 -15 12 3 19 11 16 16 -8 12 -105 12
-105 -1z"/>
<path d="M3513 5903 c-9 -26 -23 -33 -64 -33 -26 0 -45 -9 -73 -35 -21 -19
-45 -35 -52 -35 -17 0 -37 -37 -30 -56 7 -17 57 -19 74 -2 7 7 12 19 12 28 0
19 122 70 168 70 36 0 48 13 30 32 -7 7 -13 20 -13 28 0 23 -44 25 -52 3z"/>
<path d="M4733 5824 c-3 -8 -1 -20 6 -27 8 -8 11 -4 11 16 0 30 -7 35 -17 11z"/>
<path d="M4650 5800 c0 -19 3 -21 12 -12 9 9 9 15 0 24 -9 9 -12 7 -12 -12z"/>
<path d="M4557 5782 c-10 -10 -17 -23 -17 -29 0 -5 -10 -9 -21 -9 -12 1 -24
-5 -27 -13 -3 -10 2 -13 22 -9 33 7 33 -8 0 -43 -33 -34 -25 -52 17 -37 16 6
36 23 45 40 l16 31 11 -23 c18 -36 41 -46 71 -32 18 8 26 19 26 36 0 35 -31
50 -75 37 l-35 -9 6 39 c7 44 -10 53 -39 21z"/>
<path d="M3178 5638 c-6 -17 29 -97 58 -131 28 -33 31 -82 8 -95 -30 -17 0
-20 39 -5 32 13 38 20 34 39 -4 21 0 24 24 24 38 0 44 14 29 76 l-13 54 -48 0
c-36 0 -55 6 -77 25 -33 28 -48 31 -54 13z"/>
<path d="M4561 5583 c-1 -32 3 -43 14 -43 17 0 20 11 6 26 -5 5 -11 20 -14 34
-3 16 -5 10 -6 -17z"/>
<path d="M4605 5500 c-3 -6 -3 -20 0 -31 5 -16 13 -20 32 -16 15 3 27 -1 30
-9 3 -8 11 -14 18 -14 17 0 25 33 13 54 -9 16 -11 16 -28 1 -18 -16 -19 -16
-32 4 -14 23 -24 26 -33 11z"/>
<path d="M4730 5481 c-7 -13 -7 -22 0 -26 15 -9 30 4 30 26 0 25 -16 25 -30 0z"/>
<path d="M3443 5344 c-4 -11 1 -22 12 -30 24 -18 37 -18 61 1 19 15 19 15 0
30 -26 20 -65 19 -73 -1z"/>
<path d="M4092 5160 c-51 -9 -100 -25 -110 -34 -10 -9 -25 -16 -33 -16 -8 0
-26 -15 -41 -34 l-28 -34 28 -6 c48 -9 147 -5 161 7 12 11 124 48 188 64 13 3
46 -2 74 -11 52 -17 79 -16 79 4 0 6 -13 16 -29 21 -15 6 -33 21 -39 34 -11
23 -16 25 -84 24 -40 -1 -115 -9 -166 -19z"/>
<path d="M3360 5100 c-30 -3 -70 -14 -88 -25 -34 -20 -81 -89 -69 -101 3 -4
30 4 59 16 63 28 145 31 182 6 28 -18 77 -21 92 -7 5 6 32 11 59 13 45 3 50 5
53 29 4 32 -29 63 -72 67 -68 6 -164 7 -216 2z"/>
<path d="M4171 5006 c-9 -11 -8 -24 5 -57 10 -24 22 -50 27 -56 14 -19 38 -15
44 7 3 11 14 20 24 20 33 0 89 -28 89 -44 0 -9 5 -16 10 -16 14 0 13 -27 -2
-36 -7 -4 -17 1 -25 13 -18 26 -63 20 -63 -9 0 -11 -9 -31 -20 -45 -11 -14
-20 -32 -20 -39 0 -7 -9 -16 -20 -19 -24 -8 -25 -15 -3 -53 21 -37 12 -66 -19
-57 -46 14 -138 76 -131 88 18 29 -26 97 -63 97 -42 1 -56 24 -53 89 3 67 -3
80 -26 61 -20 -16 -45 -6 -45 20 0 23 -6 24 -43 8 -34 -16 -35 -28 -2 -28 24
0 25 -3 25 -62 0 -36 6 -75 15 -92 8 -15 15 -35 15 -42 0 -8 6 -14 13 -14 6 0
36 -25 65 -55 75 -76 204 -139 287 -139 56 -1 64 2 117 43 39 31 62 57 72 85
20 51 36 165 24 172 -4 3 -8 20 -8 39 0 56 -18 80 -79 109 -66 30 -189 37
-210 12z m203 -225 c7 -10 -22 -37 -30 -28 -9 8 3 37 15 37 5 0 12 -4 15 -9z
m-54 -61 c0 -30 -50 -47 -67 -24 -17 24 -16 32 5 37 42 11 62 7 62 -13z"/>
<path d="M4026 4997 c-17 -12 -17 -14 -2 -20 13 -5 16 -21 16 -76 0 -40 5 -73
11 -77 21 -13 42 24 45 82 2 31 8 62 14 69 23 28 -50 46 -84 22z"/>
<path d="M3626 4963 c-3 -4 10 -15 31 -25 36 -18 38 -18 51 -1 11 15 10 19 -5
25 -24 9 -68 10 -77 1z"/>
<path d="M3350 4931 c-47 -13 -1 -23 130 -29 147 -6 145 -4 134 -89 -5 -44
-10 -53 -26 -53 -16 0 -19 -5 -13 -29 5 -24 2 -30 -14 -36 -12 -3 -21 -15 -21
-26 0 -12 -10 -23 -27 -30 -35 -13 -64 -39 -57 -50 3 -5 10 -7 15 -4 5 4 9 2
9 -2 0 -5 -21 -19 -47 -32 -39 -19 -49 -20 -58 -9 -5 7 -30 22 -55 33 -122 52
-132 102 -43 195 28 29 33 40 28 65 -4 17 -7 45 -6 63 0 30 -3 33 -27 30 -24
-3 -27 -7 -27 -38 l0 -35 -46 1 c-45 0 -48 -2 -63 -37 -15 -33 -15 -42 -1
-103 27 -116 56 -169 119 -215 52 -39 59 -41 125 -41 61 0 76 4 114 30 64 43
220 225 213 248 -4 11 4 32 19 52 24 33 31 72 19 104 -10 27 -23 18 -34 -24
-11 -40 -30 -46 -30 -10 0 34 -12 50 -36 50 -13 0 -24 6 -24 13 0 14 -225 21
-270 8z"/>
<path d="M2927 4903 c-3 -5 -5 -52 -6 -106 -1 -53 -4 -104 -8 -112 -3 -9 4
-39 16 -68 12 -29 23 -73 24 -98 2 -35 7 -46 25 -56 32 -17 62 -1 62 32 0 47
34 25 44 -27 4 -21 11 -38 16 -38 11 0 13 -50 4 -74 -3 -9 -17 -16 -30 -16
-13 0 -24 -4 -24 -10 0 -5 5 -10 11 -10 7 0 17 -6 23 -14 6 -8 30 -17 54 -21
49 -8 55 6 22 48 -11 14 -20 36 -20 50 0 14 -7 32 -15 41 -9 8 -15 33 -15 58
0 24 -5 59 -11 78 -6 19 -14 59 -17 89 -8 64 -24 75 -48 30 -12 -24 -15 -49
-11 -95 6 -81 -12 -77 -38 8 -15 52 -16 68 -7 105 16 59 15 137 -2 178 -14 32
-38 46 -49 28z"/>
<path d="M4130 4790 c0 -13 9 -22 26 -26 34 -9 50 8 29 30 -23 23 -55 21 -55
-4z"/>
<path d="M3398 4739 c-10 -5 -18 -19 -18 -29 0 -15 7 -20 28 -20 15 0 34 4 42
10 12 7 12 12 -4 29 -22 24 -24 24 -48 10z"/>
<path d="M4107 4514 c-12 -12 -8 -32 9 -48 15 -15 34 -14 34 2 -1 15 -36 53
-43 46z"/>
<path d="M3955 4448 c-11 -6 -27 -19 -35 -29 -8 -10 -31 -22 -50 -26 -20 -5
-35 -16 -35 -24 0 -19 132 -20 198 -1 46 14 66 42 29 42 -10 0 -29 11 -42 25
-26 28 -36 30 -65 13z"/>
<path d="M3660 4390 c-16 -18 -27 -36 -24 -41 9 -15 50 -10 101 12 45 19 47
21 29 35 -11 8 -25 14 -32 14 -7 0 -19 3 -28 6 -10 4 -27 -5 -46 -26z"/>
<path d="M4430 4376 c0 -8 4 -17 9 -20 10 -7 23 19 14 28 -11 11 -23 6 -23 -8z"/>
<path d="M3956 4324 c-9 -8 -16 -20 -16 -25 0 -5 -9 -9 -20 -9 -23 0 -46 -40
-37 -64 5 -11 20 -16 51 -16 25 0 48 -4 51 -10 14 -22 55 -10 75 23 24 39 25
47 5 47 -8 0 -15 4 -15 10 0 5 -11 12 -25 16 -13 3 -27 15 -30 25 -8 23 -19
24 -39 3z"/>
<path d="M4597 4300 c-22 -25 -27 -41 -25 -69 4 -46 34 -56 44 -14 4 15 11 33
16 40 5 6 5 25 1 44 l-9 32 -27 -33z"/>
<path d="M4214 4273 c15 -61 13 -68 -24 -73 -19 -3 -47 -13 -63 -24 -20 -14
-39 -17 -71 -14 -48 6 -76 -5 -76 -29 0 -12 8 -14 44 -9 34 5 45 4 49 -9 7
-18 59 -20 105 -4 24 8 37 7 61 -5 42 -22 74 -8 88 39 15 47 10 61 -44 113
-52 50 -79 56 -69 15z"/>
<path d="M3635 4248 c-31 -34 -52 -42 -97 -39 -10 1 -18 8 -18 17 0 11 -5 14
-16 10 -9 -3 -17 -6 -20 -6 -2 0 -13 -19 -25 -41 -23 -46 -20 -114 7 -156 20
-32 42 -29 78 13 30 34 32 35 65 23 27 -9 35 -9 41 2 12 18 3 29 -23 29 -19 0
-57 30 -57 45 0 3 9 14 20 25 22 22 55 26 66 9 4 -8 12 -2 21 16 l15 27 19
-21 c23 -25 38 -26 85 -6 26 11 34 19 30 31 -3 8 -6 22 -6 29 0 15 -80 36
-124 32 -18 -1 -40 -15 -61 -39z"/>
<path d="M3236 4272 c-3 -6 1 -13 10 -16 23 -9 28 -2 10 13 -8 7 -17 8 -20 3z"/>
<path d="M3775 4125 c-50 -7 -67 -13 -45 -14 19 0 53 -6 74 -12 29 -8 51 -8
85 1 76 20 79 21 56 30 -27 11 -74 10 -170 -5z"/>
<path d="M3968 4033 c-9 -2 -24 -15 -32 -29 -14 -21 -24 -24 -75 -24 -52 0
-151 -30 -151 -46 0 -12 73 -34 91 -29 13 4 28 0 40 -11 19 -17 23 -17 68 -1
27 9 65 17 84 17 26 0 40 6 51 22 21 29 20 33 -8 46 -14 6 -26 21 -28 33 -3
24 -13 29 -40 22z"/>
<path d="M4677 3853 c-4 -3 -7 -52 -7 -107 -1 -69 -5 -109 -15 -126 -8 -14
-14 -33 -15 -42 0 -24 -102 -239 -122 -259 -20 -19 -78 -87 -133 -154 -37 -45
-212 -222 -278 -280 -16 -14 -41 -25 -56 -25 -16 0 -54 -11 -85 -25 -31 -14
-59 -25 -61 -25 -2 0 -11 13 -20 29 -9 18 -29 35 -50 42 -19 7 -35 16 -35 21
0 4 -19 24 -41 45 -65 59 -79 76 -79 92 0 9 -28 60 -63 113 -161 250 -197 319
-218 413 -10 40 -19 60 -29 60 -18 0 -85 -134 -105 -212 -8 -32 -15 -82 -15
-113 -1 -30 -7 -84 -16 -120 -8 -36 -21 -101 -29 -145 -8 -44 -20 -100 -26
-125 -7 -29 -12 -183 -13 -435 -1 -344 1 -397 17 -451 9 -34 17 -90 17 -124 0
-34 7 -76 14 -93 8 -18 19 -54 25 -82 18 -92 51 -209 66 -232 8 -12 15 -30 15
-40 0 -10 6 -27 14 -38 7 -11 16 -31 19 -45 3 -14 15 -50 27 -80 12 -30 24
-64 27 -75 3 -11 11 -27 17 -35 7 -8 20 -42 31 -75 11 -33 32 -87 47 -120 15
-33 28 -72 28 -86 0 -14 7 -34 15 -45 8 -10 15 -30 15 -44 0 -14 6 -34 14 -45
7 -11 16 -33 20 -50 4 -16 17 -52 30 -80 13 -27 31 -77 41 -110 26 -88 35
-116 56 -160 10 -22 33 -76 49 -120 36 -91 40 -98 63 -89 25 9 32 52 14 83
-53 91 -107 232 -107 283 0 10 -10 43 -23 71 -45 99 -77 231 -77 315 0 23 -10
41 -38 69 -26 26 -41 51 -46 78 -4 21 -16 56 -27 77 -10 20 -19 49 -19 64 0
19 -13 39 -40 65 -43 41 -80 123 -80 176 0 17 -4 34 -9 37 -5 4 -19 26 -31 50
-17 36 -19 48 -9 63 9 15 7 27 -9 60 -11 23 -17 52 -15 66 3 14 -2 31 -12 41
-15 15 -16 21 -4 44 20 41 18 99 -3 118 -9 9 -15 21 -12 26 3 5 0 15 -6 23 -8
10 -10 32 -6 69 6 43 4 55 -8 59 -19 7 -22 38 -3 35 18 -4 21 60 4 80 -17 19
-20 71 -5 89 6 7 5 26 -2 52 -6 23 -11 126 -11 235 0 166 4 240 25 451 2 17 7
30 11 30 17 0 35 -81 40 -183 9 -159 92 -529 135 -604 6 -10 10 -25 10 -34 0
-8 12 -41 26 -72 15 -31 30 -70 34 -87 5 -16 14 -46 21 -65 6 -19 14 -41 15
-48 4 -15 44 11 100 66 18 17 42 32 54 32 19 0 21 4 16 25 -6 23 -4 25 29 25
20 0 47 7 60 16 24 16 25 15 25 -7 0 -14 -9 -30 -20 -37 -23 -14 -18 -36 15
-67 20 -20 21 -29 21 -227 -1 -189 -3 -208 -19 -221 -17 -12 -17 -14 -3 -26
18 -15 21 -56 6 -66 -6 -4 -17 -1 -25 5 -12 10 -18 10 -30 0 -22 -19 -18 -28
10 -22 21 4 25 1 25 -21 0 -32 -14 -42 -30 -22 -14 17 -46 20 -55 5 -9 -14 25
-57 55 -70 33 -14 84 1 89 26 2 10 16 42 32 71 16 29 29 57 29 64 0 6 14 28
30 49 17 21 30 45 30 53 0 8 7 17 15 21 8 3 15 13 15 23 0 10 11 36 25 58 13
22 40 74 60 115 20 41 41 82 46 90 18 28 79 158 79 168 0 5 7 15 15 22 8 7 15
20 15 29 0 9 14 43 30 75 17 32 30 68 30 80 0 12 7 30 15 40 8 11 15 26 15 34
0 7 7 20 15 28 8 9 15 25 15 38 0 12 4 26 8 31 5 6 19 39 32 75 13 36 27 70
33 77 5 7 13 27 17 45 13 50 95 280 108 305 7 12 12 33 12 47 0 14 4 27 9 31
5 3 13 20 16 37 8 36 42 105 56 114 5 3 9 13 9 22 0 9 5 24 10 32 9 13 11 13
20 0 27 -40 42 67 42 290 0 195 -7 232 -46 275 -34 37 -38 39 -49 28z m29
-365 c-9 -12 -16 -33 -16 -46 0 -26 -39 -102 -52 -102 -4 0 -8 -10 -8 -22 0
-46 -39 -138 -73 -176 -16 -17 -21 -38 -23 -93 -2 -62 -19 -132 -44 -179 -4
-9 -11 -35 -15 -59 l-7 -43 -41 6 c-22 4 -52 13 -66 20 -40 21 -94 44 -115 48
-10 1 -23 13 -27 26 -7 19 -4 25 19 34 36 16 93 65 114 99 10 16 33 32 60 41
l43 15 0 51 c0 42 5 56 28 80 18 19 35 28 47 25 16 -4 18 0 13 34 -4 32 0 45
29 83 62 81 135 210 139 245 1 11 4 1 6 -22 3 -28 -1 -51 -11 -65z m-1287
-157 c31 -48 63 -102 70 -120 8 -18 26 -45 40 -61 35 -37 46 -52 60 -78 6 -12
18 -22 26 -22 7 0 16 -9 20 -19 3 -11 19 -26 36 -33 24 -10 29 -17 24 -36 -4
-17 2 -31 22 -53 15 -16 34 -29 40 -29 7 0 13 -6 13 -14 0 -8 14 -19 31 -25
29 -10 31 -13 25 -47 -6 -29 -4 -36 11 -40 10 -3 27 -17 38 -32 17 -23 20 -43
20 -139 0 -114 5 -134 27 -116 7 6 36 14 63 18 78 10 248 116 231 143 -8 13
-51 1 -108 -29 -24 -13 -60 -20 -105 -22 l-68 -2 3 35 c1 19 9 41 17 50 8 9
15 26 15 38 0 24 57 85 72 76 5 -3 19 3 31 14 33 29 65 34 77 11 15 -28 61
-48 107 -47 61 1 116 -11 141 -31 21 -15 23 -23 17 -64 -5 -33 -13 -48 -26
-52 -15 -5 -19 -16 -19 -49 0 -64 -48 -107 -108 -98 -27 4 -32 1 -32 -17 0
-15 6 -21 23 -21 12 -1 32 -9 45 -20 22 -18 23 -22 10 -56 -7 -21 -25 -50 -40
-67 -22 -23 -28 -39 -28 -73 0 -30 -5 -46 -15 -50 -8 -4 -15 -11 -15 -18 0 -6
-18 -30 -41 -53 -22 -23 -38 -46 -35 -51 7 -12 -15 -70 -45 -117 -39 -61 -46
-76 -54 -123 -5 -32 -13 -46 -31 -54 -15 -7 -24 -20 -24 -35 0 -30 -28 -31
-32 0 -2 14 -9 21 -20 21 -14 -1 -17 6 -16 35 0 20 -4 52 -10 71 -7 22 -10
116 -9 248 l2 214 28 22 c15 12 27 25 27 29 0 5 -13 22 -29 39 -40 43 -61 27
-61 -45 0 -51 -13 -74 -92 -158 -25 -26 -26 -27 -89 -15 -53 9 -65 15 -67 32
-2 11 -21 34 -42 50 -22 16 -40 34 -40 40 0 6 -13 30 -30 52 -27 38 -30 49
-30 122 0 89 8 112 71 195 40 53 88 82 174 107 45 13 50 17 53 46 3 29 0 33
-28 38 -17 4 -33 10 -36 15 -3 5 -30 -9 -59 -31 -30 -22 -66 -45 -81 -50 -17
-7 -24 -15 -20 -26 3 -9 -1 -17 -12 -21 -9 -3 -32 -20 -49 -36 -32 -30 -33
-30 -53 -12 -11 10 -20 27 -20 39 1 50 -8 86 -28 119 -24 41 -40 150 -25 169
19 24 22 88 8 129 -18 50 -41 249 -32 273 10 25 23 13 86 -83z m241 -1211 c0
-23 -25 -27 -33 -6 -7 16 1 26 20 26 7 0 13 -9 13 -20z m295 -490 c7 -11 -32
-90 -44 -90 -15 0 -23 57 -11 79 11 22 44 28 55 11z"/>
<path d="M3691 2601 c-41 -44 -60 -108 -43 -143 15 -33 32 -37 32 -8 0 14 7
20 21 20 12 0 27 7 34 17 7 9 19 14 28 10 24 -9 10 -37 -19 -37 -37 0 -50 -35
-28 -76 19 -35 39 -44 46 -22 3 7 18 11 36 10 27 -2 32 1 32 21 0 28 -17 47
-36 40 -16 -6 -18 2 -4 27 5 10 21 21 35 24 23 6 25 11 25 56 0 48 -14 67 -26
35 -13 -33 -100 -9 -89 25 10 32 -14 33 -44 1z"/>
<path d="M3510 2449 c0 -51 4 -68 15 -73 8 -3 15 -12 15 -20 0 -13 28 -36 44
-36 2 0 7 13 11 29 7 31 -8 70 -31 84 -8 4 -23 25 -34 45 l-19 37 -1 -66z"/>
<path d="M3603 2473 c-18 -7 -16 -23 2 -23 8 0 15 7 15 15 0 8 -1 15 -2 14 -2
0 -9 -3 -15 -6z"/>
<path d="M3760 2300 c0 -11 7 -20 15 -20 8 0 15 9 15 20 0 11 -7 20 -15 20 -8
0 -15 -9 -15 -20z"/>
<path d="M3634 2275 c20 -19 38 -25 72 -25 24 0 44 5 44 10 0 6 -15 10 -33 10
-18 0 -42 7 -53 15 -10 8 -28 15 -38 15 -16 0 -15 -3 8 -25z"/>
<path d="M4880 3669 c1 -19 24 -49 39 -49 18 0 13 15 -14 40 -17 16 -25 19
-25 9z"/>
<path d="M5125 3517 c-4 -10 -5 -21 -1 -24 10 -10 18 4 13 24 -4 17 -4 17 -12
0z"/>
<path d="M5136 3471 c-3 -5 3 -30 13 -54 21 -50 108 -127 142 -127 11 0 31
-12 44 -26 14 -15 35 -26 50 -26 33 0 42 -16 19 -32 -9 -7 -14 -18 -10 -24 10
-16 26 -15 26 2 0 7 7 19 15 26 8 7 15 23 15 35 0 12 -7 28 -15 35 -8 7 -15
18 -15 26 0 17 -39 44 -65 44 -18 0 -102 55 -157 103 -22 20 -55 30 -62 18z"/>
<path d="M3052 3400 c-7 -12 -18 -17 -28 -13 -9 3 -21 -3 -30 -16 -10 -14 -22
-20 -34 -16 -10 3 -20 0 -23 -9 -7 -17 -90 -56 -119 -56 -10 0 -21 -6 -24 -14
-3 -7 -28 -24 -57 -37 -29 -13 -54 -27 -55 -32 -2 -4 -29 -19 -60 -33 -32 -15
-68 -37 -82 -49 -14 -12 -52 -30 -85 -40 -33 -10 -69 -26 -80 -35 -11 -10 -45
-29 -76 -43 -36 -16 -68 -39 -89 -66 -18 -22 -39 -41 -46 -41 -24 0 -46 -44
-35 -71 5 -13 10 -18 10 -12 1 7 16 20 34 28 17 8 52 26 77 40 25 13 57 25 71
25 15 0 32 7 39 15 7 8 18 15 25 15 6 0 79 34 162 75 114 57 169 91 229 143
69 59 155 120 225 158 30 17 88 77 89 92 0 19 -24 14 -38 -8z"/>
<path d="M6025 3220 c-4 -7 -3 -16 3 -22 14 -14 47 -6 47 12 0 18 -40 26 -50
10z"/>
<path d="M5162 3211 c-23 -4 -48 -13 -54 -19 -7 -7 -26 -12 -44 -12 -44 0 -60
-21 -36 -50 l18 -23 85 28 c110 37 114 39 114 61 0 22 -20 25 -83 15z"/>
<path d="M5540 3204 c0 -14 3 -14 15 -4 8 7 15 14 15 16 0 2 -7 4 -15 4 -8 0
-15 -7 -15 -16z"/>
<path d="M3081 3196 c-10 -12 -6 -26 10 -26 11 0 19 29 10 35 -5 2 -14 -1 -20
-9z"/>
<path d="M4717 3193 c-3 -5 -10 -37 -17 -73 -12 -71 -19 -101 -50 -204 -11
-37 -20 -83 -20 -101 0 -19 -4 -36 -9 -39 -9 -6 -37 -117 -47 -191 -4 -27 -11
-59 -17 -70 -6 -11 -9 -40 -8 -64 2 -26 -4 -59 -14 -80 -10 -20 -23 -48 -30
-63 -11 -22 -11 -29 0 -38 11 -9 11 -17 1 -43 -8 -18 -16 -59 -20 -91 -4 -33
-11 -65 -16 -71 -5 -6 -9 -26 -9 -45 1 -19 -4 -57 -10 -85 -23 -107 -32 -182
-22 -206 l9 -24 11 28 c6 16 11 37 11 47 0 10 4 21 9 25 5 3 13 31 16 63 4 31
17 91 31 132 13 41 24 87 24 102 0 24 16 105 41 208 18 76 28 131 33 177 6 49
30 176 47 248 5 22 19 83 30 135 11 52 24 106 29 120 13 33 20 199 10 205 -5
3 -11 2 -13 -2z"/>
<path d="M5455 3169 c-28 -54 -9 -94 30 -65 19 14 19 15 1 34 -19 22 -15 42
10 42 8 0 14 5 14 10 0 23 -40 8 -55 -21z"/>
<path d="M2840 3156 c0 -7 7 -19 15 -26 8 -7 15 -18 15 -24 0 -13 46 -36 72
-36 16 0 38 27 38 48 0 6 -16 19 -36 31 -41 24 -104 29 -104 7z"/>
<path d="M5805 3149 c11 -6 26 -18 32 -27 16 -20 31 -6 17 16 -6 9 -24 18 -40
20 -26 2 -27 1 -9 -9z"/>
<path d="M6400 3109 c-10 -17 -7 -27 15 -59 25 -36 26 -41 12 -67 -60 -114
-56 -165 10 -114 23 19 26 19 59 3 33 -15 34 -18 28 -58 -5 -37 -3 -44 22 -68
16 -14 32 -26 36 -26 15 0 8 58 -10 81 -12 15 -24 59 -32 116 -15 106 -45 155
-102 167 -24 5 -29 9 -20 18 14 14 16 28 2 28 -5 0 -14 -9 -20 -21z"/>
<path d="M2825 3070 c-18 -8 -17 -9 8 -9 16 -1 26 3 22 9 -3 6 -7 10 -8 9 -1
0 -11 -4 -22 -9z"/>
<path d="M6310 3067 c-19 -15 -50 -105 -50 -145 0 -16 -7 -35 -15 -42 -8 -7
-15 -24 -15 -38 0 -14 -7 -33 -15 -42 -9 -10 -16 -43 -18 -86 -2 -38 -8 -78
-14 -89 -6 -11 -14 -38 -18 -60 -4 -22 -10 -44 -15 -50 -4 -5 -11 -42 -14 -82
-4 -40 -14 -85 -22 -101 -7 -16 -16 -53 -19 -83 -3 -30 -8 -83 -11 -119 -3
-36 -11 -71 -16 -78 -6 -7 -13 -34 -15 -59 -2 -26 -10 -61 -18 -77 -16 -37
-27 -152 -26 -278 0 -72 -4 -100 -21 -135 -18 -38 -19 -49 -9 -65 10 -16 10
-23 -3 -37 -19 -21 -20 -33 -5 -48 24 -24 59 -153 53 -193 -9 -52 2 -96 20
-81 18 15 49 -20 44 -52 -1 -14 5 -34 15 -45 17 -18 17 -23 4 -44 -8 -12 -17
-38 -21 -57 -3 -18 -16 -49 -27 -68 -19 -30 -25 -33 -50 -28 -28 6 -29 5 -23
-24 5 -24 1 -37 -20 -62 -34 -40 -58 -94 -62 -139 -8 -87 -38 -226 -53 -245
-5 -5 -12 -36 -15 -67 -8 -62 -30 -116 -55 -135 -13 -9 -14 -14 -3 -24 17 -18
15 -49 -3 -49 -8 0 -15 -4 -15 -8 0 -21 29 -32 83 -32 57 0 58 1 73 35 7 19
14 44 14 56 0 12 11 52 25 90 26 72 38 132 60 284 17 116 30 157 66 208 62 87
83 123 104 174 24 58 42 83 59 83 6 0 28 -35 48 -78 21 -42 42 -85 48 -94 5
-10 14 -26 19 -35 16 -30 112 -184 158 -254 23 -37 43 -71 43 -76 0 -14 145
-210 187 -255 40 -41 39 -62 -4 -79 -15 -6 -35 -15 -43 -20 -8 -5 -26 -14 -40
-21 -24 -12 -24 -12 14 -16 22 -2 56 3 75 11 20 9 44 18 53 21 10 3 15 11 12
20 -8 21 120 40 221 32 79 -6 112 -1 267 40 43 11 83 13 163 8 58 -4 108 -11
111 -15 3 -5 12 -9 20 -9 8 0 42 -13 76 -30 33 -16 66 -30 73 -30 7 0 16 -8
19 -17 5 -12 10 -13 18 -5 8 8 8 15 -2 27 -24 29 20 17 70 -20 45 -33 52 -35
129 -35 l81 0 0 28 c-1 39 -93 206 -116 211 -10 2 -47 23 -82 48 -34 24 -88
56 -120 70 -144 64 -280 134 -291 151 -11 16 -111 62 -135 62 -13 0 -29 7 -36
15 -7 9 -19 14 -26 11 -18 -7 -74 25 -74 42 0 21 -40 72 -56 72 -16 0 -108 54
-144 85 -14 12 -62 40 -107 63 -46 23 -99 53 -119 67 -20 13 -51 27 -70 31
-25 4 -39 15 -50 36 -18 35 -59 57 -76 40 -8 -8 -3 -17 18 -36 16 -14 36 -26
44 -26 10 0 11 -3 3 -11 -19 -19 -79 -2 -98 27 -9 14 -27 29 -41 34 -13 5 -29
21 -34 35 -5 14 -14 25 -19 25 -5 0 -27 18 -50 40 -39 38 -71 52 -71 30 0 -5
3 -10 8 -10 4 0 31 -23 60 -50 30 -28 58 -50 63 -50 5 0 12 -12 15 -27 10 -42
63 -93 96 -93 16 0 31 -7 34 -15 4 -8 19 -15 35 -15 15 0 36 -9 46 -19 25 -27
88 -68 109 -73 10 -2 29 -19 42 -38 19 -28 30 -35 55 -35 18 0 40 3 49 8 20 9
34 -9 30 -40 -3 -17 3 -24 22 -29 13 -3 32 -2 41 3 27 15 75 3 87 -22 5 -12
24 -28 41 -36 26 -11 32 -20 32 -44 0 -27 -3 -30 -30 -27 -16 2 -77 4 -134 4
l-104 1 -58 -61 c-36 -37 -55 -64 -48 -68 12 -7 120 20 154 39 40 21 99 26
117 10 13 -12 21 -13 31 -5 10 8 17 8 24 1 15 -15 33 -3 33 22 0 22 25 26 34
4 7 -19 35 -19 56 0 15 14 20 13 44 -6 35 -27 24 -42 -28 -36 -30 3 -49 -1
-73 -17 -43 -27 -42 -46 0 -46 18 0 42 -6 52 -14 12 -9 26 -11 35 -6 9 5 23 5
31 -1 7 -5 34 -9 58 -9 31 0 51 -7 73 -25 23 -20 41 -25 82 -25 122 0 224 -38
351 -130 38 -27 84 -69 102 -91 60 -76 40 -78 -87 -7 -51 28 -129 62 -174 75
-44 13 -106 32 -136 41 -98 30 -541 13 -659 -25 -24 -7 -51 -11 -61 -8 -21 7
-73 117 -64 139 3 9 2 16 -4 16 -6 0 -12 -5 -14 -12 -3 -7 -12 -9 -22 -5 -17
7 -17 9 -3 25 19 21 8 46 -16 37 -11 -5 -20 3 -31 23 -8 16 -33 47 -56 68 -22
21 -40 46 -40 56 0 10 -13 32 -30 50 -16 17 -30 39 -30 49 0 9 -3 24 -6 33 -5
12 0 16 21 16 41 0 25 24 -19 28 -29 3 -39 9 -46 28 -6 14 -24 37 -40 51 -20
17 -29 31 -25 43 4 11 -3 23 -18 33 -14 9 -37 37 -52 64 -16 26 -32 50 -36 53
-4 3 -9 18 -11 34 -4 39 -26 45 -30 9 -2 -22 -9 -29 -30 -31 -20 -2 -33 5 -57
36 -36 44 -70 102 -107 182 -14 30 -30 65 -36 77 -7 14 -8 54 -3 115 4 51 8
138 10 193 5 184 16 318 29 354 6 20 13 74 15 121 1 46 7 92 12 101 5 9 13 54
18 100 6 56 14 85 24 91 12 6 14 20 10 63 -4 41 -2 61 11 79 9 14 16 34 16 44
0 10 9 54 21 97 11 43 18 87 15 98 -2 10 6 34 20 54 19 28 23 44 18 70 -4 21
-2 33 5 33 6 0 11 5 11 11 0 7 10 45 22 85 17 57 27 74 43 76 11 2 21 11 23
21 3 13 -3 17 -25 17 -15 0 -35 -6 -43 -13z m1051 -2590 c-13 -13 -26 -3 -16
12 3 6 11 8 17 5 6 -4 6 -10 -1 -17z"/>
<path d="M2850 3016 c-44 -32 -109 -125 -110 -158 0 -9 -7 -23 -15 -32 -8 -8
-19 -25 -24 -38 -9 -24 -15 -188 -9 -240 4 -36 18 -48 18 -15 0 14 4 28 9 31
5 3 12 36 16 73 8 72 30 125 99 233 60 94 96 157 96 169 0 20 -35 10 -80 -23z"/>
<path d="M5057 3044 c-9 -10 10 -41 55 -90 63 -69 90 -51 48 31 -26 50 -80 81
-103 59z"/>
<path d="M5660 2986 c0 -17 14 -29 23 -20 8 8 -3 34 -14 34 -5 0 -9 -6 -9 -14z"/>
<path d="M5317 2945 c-18 -37 -21 -65 -11 -102 7 -25 34 -32 34 -9 0 8 7 22
16 31 15 15 18 15 36 -4 17 -20 55 -30 46 -13 -3 4 -10 22 -17 40 -7 17 -19
32 -26 32 -7 0 -18 14 -25 30 -16 40 -33 38 -53 -5z"/>
<path d="M1891 2951 c-14 -14 -21 -34 -21 -58 -1 -35 -2 -36 -15 -19 -17 23
-35 13 -35 -20 0 -13 -4 -24 -9 -24 -4 0 -14 -21 -20 -47 -7 -27 -17 -56 -22
-65 -5 -10 -9 -25 -9 -33 0 -8 -13 -44 -30 -78 -16 -35 -30 -69 -30 -74 0 -6
-7 -16 -15 -23 -8 -7 -15 -23 -15 -35 0 -42 -71 -267 -112 -355 -26 -55 -32
-83 -38 -178 -5 -62 -13 -118 -18 -125 -10 -12 -23 -62 -57 -217 -26 -120 -27
-134 -31 -301 -2 -91 -9 -188 -15 -215 -18 -83 -41 -255 -45 -339 -2 -44 -7
-136 -10 -205 -3 -69 -10 -129 -14 -135 -4 -5 -11 -26 -15 -45 -3 -19 -12 -53
-19 -75 -33 -101 -40 -123 -53 -179 -7 -34 -16 -71 -20 -83 -5 -21 -2 -23 39
-23 l44 0 22 68 c12 38 22 78 22 89 0 11 9 28 20 38 13 11 18 25 14 37 -3 10
-1 18 5 18 23 0 39 66 37 155 -1 50 2 96 8 104 6 7 9 28 7 46 -1 18 2 36 8 40
19 11 13 96 -6 111 -15 10 -16 15 -5 25 6 7 12 25 12 39 0 14 7 36 16 48 14
21 14 25 0 47 -21 32 -24 31 -41 -8 l-14 -32 -1 36 c0 19 4 39 9 45 8 8 27 69
67 209 7 28 13 61 12 75 -1 14 2 33 7 43 6 14 2 20 -14 24 -25 6 -25 8 -6 98
8 39 15 91 15 117 0 51 35 173 57 199 7 8 13 23 13 31 0 29 30 88 45 88 23 0
18 27 -6 33 -32 9 -8 45 34 49 45 4 43 31 -3 39 -70 12 -80 19 -80 55 0 19 4
34 9 34 5 0 25 33 45 74 46 92 72 127 91 119 20 -7 20 40 0 57 -20 17 -20 70
0 70 8 0 15 9 15 20 0 11 4 28 9 38 5 9 14 28 20 42 6 14 21 38 33 53 23 28
20 37 -16 50 -5 2 -6 14 -3 28 7 29 65 56 82 38 7 -8 6 -13 -2 -16 -19 -7 -16
-21 7 -28 15 -5 18 -12 13 -35 -3 -17 -1 -42 5 -57 6 -16 14 -46 16 -68 9 -67
26 -168 36 -213 6 -23 10 -54 10 -68 0 -14 4 -33 10 -43 18 -34 30 -143 18
-158 -9 -11 -7 -15 9 -19 16 -4 22 -16 26 -52 3 -26 10 -89 16 -140 6 -52 14
-99 18 -105 4 -6 6 -23 5 -38 -1 -14 7 -38 18 -52 25 -31 25 -33 -1 -40 -25
-7 -16 -27 11 -27 15 0 20 -10 25 -47 3 -27 8 -59 11 -73 3 -14 7 -45 9 -70 2
-25 8 -74 13 -110 5 -36 15 -103 21 -150 7 -47 17 -103 22 -125 6 -22 13 -53
16 -70 3 -16 12 -35 20 -42 41 -32 80 -347 47 -374 -24 -19 -33 1 -40 84 -5
51 -11 77 -19 77 -14 0 -26 -69 -15 -85 15 -21 34 -163 31 -245 -1 -64 -7 -95
-25 -130 -12 -25 -21 -51 -18 -58 2 -7 23 -12 58 -12 47 0 54 3 54 19 0 11 4
23 10 26 5 3 10 44 10 91 0 72 3 87 21 105 19 19 19 25 9 72 -6 28 -13 105
-16 171 -3 67 -9 137 -14 156 -5 19 -12 69 -16 110 -4 41 -12 86 -19 100 -7
14 -20 68 -30 120 -9 52 -25 140 -36 195 -17 91 -25 140 -59 345 -6 36 -17 88
-25 115 -8 28 -19 77 -26 110 -7 33 -17 69 -24 80 -7 11 -16 49 -20 83 -4 34
-11 65 -16 68 -5 3 -9 21 -9 39 0 19 -7 54 -14 77 -19 54 -52 224 -60 302 -4
33 -12 66 -19 74 -9 11 -11 71 -10 221 2 197 3 206 24 221 13 11 20 25 17 41
-4 31 -31 36 -57 10z m-21 -122 c0 -6 -4 -18 -9 -28 -5 -9 -12 -51 -14 -92 -4
-60 -8 -75 -23 -78 -14 -2 -16 2 -10 29 3 18 6 63 6 101 0 56 3 68 18 72 29 8
32 7 32 -4z m-440 -2159 c0 -11 -4 -20 -10 -20 -5 0 -10 9 -10 20 0 11 5 20
10 20 6 0 10 -9 10 -20z"/>
<path d="M2582 2910 c-17 -10 -36 -28 -42 -40 -6 -12 -23 -25 -37 -31 -14 -5
-27 -18 -30 -29 -3 -11 -12 -20 -19 -20 -8 0 -14 -7 -14 -15 0 -8 -9 -15 -19
-15 -28 0 -36 -19 -15 -35 23 -17 66 -19 82 -3 6 6 35 23 64 38 29 15 59 38
65 51 14 27 17 105 5 113 -5 3 -22 -4 -40 -14z"/>
<path d="M4916 2913 c-21 -21 11 -61 62 -77 36 -12 40 20 6 47 -33 26 -60 38
-68 30z"/>
<path d="M5129 2854 c-9 -8 -35 -18 -58 -21 -31 -4 -41 -10 -41 -24 0 -21 26
-26 32 -7 7 19 28 -1 28 -26 0 -16 -8 -24 -32 -31 -40 -12 -48 -47 -22 -96 15
-31 15 -33 -2 -46 -10 -7 -21 -13 -25 -13 -4 0 -23 25 -44 55 -51 77 -65 73
-65 -19 0 -68 2 -77 33 -115 38 -48 70 -52 75 -9 4 33 32 45 49 21 17 -23 13
-34 -22 -53 -16 -9 -30 -21 -33 -28 -4 -12 13 -14 111 -17 34 -1 50 -11 60
-39 5 -14 79 3 74 17 -2 7 -17 16 -34 21 -25 8 -32 17 -42 55 -23 87 -25 111
-7 111 9 0 16 -8 16 -20 0 -28 25 -25 48 5 24 31 38 32 53 3 10 -19 8 -24 -15
-41 -32 -23 -32 -30 -1 -62 28 -27 35 -30 35 -15 0 6 14 23 31 38 27 25 30 31
24 65 -4 20 -17 49 -28 64 -13 16 -20 38 -19 54 2 17 -2 29 -12 32 -10 4 -16
18 -16 37 0 26 -3 30 -29 30 -16 0 -31 6 -35 15 -3 9 -18 15 -35 15 -36 0 -50
18 -28 35 9 7 14 15 10 18 -10 10 -17 8 -34 -9z m45 -135 c50 27 61 -9 18 -57
-25 -28 -35 -32 -80 -32 -53 0 -63 8 -37 30 8 7 15 27 15 45 0 43 9 49 37 23
20 -19 26 -20 47 -9z"/>
<path d="M5461 2831 c-21 -14 -5 -43 21 -39 15 2 23 10 23 23 0 22 -22 30 -44
16z"/>
<path d="M6450 2713 c-8 -2 -21 -6 -27 -8 -9 -3 -10 -11 -3 -30 9 -22 6 -27
-28 -48 -20 -13 -50 -28 -67 -34 -25 -8 -30 -15 -30 -43 0 -30 4 -35 34 -42
23 -7 38 -5 51 4 9 7 36 28 60 46 24 18 55 32 70 32 39 0 170 -31 170 -40 0
-4 -11 -19 -25 -34 -14 -15 -25 -33 -25 -41 0 -8 -18 -27 -40 -41 l-41 -27 21
-22 c12 -13 41 -28 64 -35 25 -7 66 -31 94 -56 28 -24 55 -44 61 -44 6 0 11
18 11 40 0 44 -26 80 -58 80 -18 0 -52 29 -52 43 0 4 10 6 23 4 19 -2 22 2 19
33 -1 19 -11 54 -22 77 -11 24 -20 48 -20 55 0 7 -6 20 -13 28 -17 21 -91 70
-105 70 -7 0 -30 9 -52 20 -41 21 -45 22 -70 13z"/>
<path d="M2278 2659 c-19 -11 -24 -34 -9 -43 13 -8 73 24 68 37 -5 16 -38 19
-59 6z"/>
<path d="M2386 2663 c-11 -11 -6 -23 9 -23 8 0 15 4 15 9 0 13 -16 22 -24 14z"/>
<path d="M5990 2506 c0 -17 14 -29 23 -20 8 8 -3 34 -14 34 -5 0 -9 -6 -9 -14z"/>
<path d="M6260 2430 c0 -23 5 -24 48 -9 40 14 32 29 -14 29 -27 0 -34 -4 -34
-20z"/>
<path d="M4854 2310 c8 -60 15 -80 28 -80 5 0 12 8 15 19 2 10 18 28 34 40 16
12 29 25 29 30 0 8 -87 41 -106 41 -3 0 -4 -23 0 -50z"/>
<path d="M6237 2343 c-25 -4 -28 -8 -25 -36 3 -34 6 -35 76 -21 24 5 38 2 52
-11 20 -18 73 -14 86 7 19 30 -116 73 -189 61z"/>
<path d="M5130 2301 c-5 -11 -10 -27 -10 -36 0 -9 -7 -23 -15 -31 -8 -9 -15
-25 -15 -36 0 -11 -6 -32 -14 -46 -7 -15 -20 -43 -29 -62 -8 -19 -29 -65 -46
-103 -17 -37 -31 -75 -31 -85 0 -9 -11 -39 -25 -66 -14 -27 -25 -60 -25 -72 0
-13 -4 -25 -9 -29 -13 -7 -61 -95 -61 -110 0 -7 -9 -24 -21 -39 -11 -15 -19
-33 -16 -41 3 -7 -1 -19 -9 -26 -20 -17 -44 -63 -44 -86 0 -10 -13 -33 -30
-51 -16 -18 -30 -38 -30 -44 0 -5 -9 -21 -20 -35 -11 -14 -20 -32 -20 -39 0
-8 -4 -14 -10 -14 -5 0 -13 -12 -16 -27 -4 -15 -16 -36 -26 -48 -29 -31 -104
-156 -177 -298 -22 -42 -51 -91 -65 -108 -14 -17 -26 -36 -26 -43 0 -12 -79
-127 -124 -181 -14 -16 -26 -37 -26 -45 0 -9 -8 -23 -17 -31 -18 -16 -75 -86
-140 -172 -75 -98 -238 -283 -256 -291 -7 -2 9 -5 35 -5 44 -1 48 1 64 34 9
19 21 35 26 35 17 0 188 174 188 191 0 9 7 19 15 22 8 4 33 35 55 71 23 36 50
68 61 71 11 4 26 23 35 43 13 33 41 78 106 174 10 15 18 36 18 46 0 10 11 29
25 42 14 13 25 29 25 36 0 6 14 38 30 69 17 31 30 63 30 70 0 7 7 19 17 26 9
8 25 34 36 59 11 25 37 68 58 97 22 29 39 59 39 67 0 9 13 28 28 43 16 16 36
42 44 58 8 17 36 68 61 115 26 47 47 95 47 106 0 12 7 27 15 34 9 7 27 37 40
66 13 29 29 55 34 59 6 3 11 17 11 31 0 15 6 24 15 24 17 0 19 14 5 40 -9 17
-5 20 27 29 46 12 168 30 245 37 31 3 62 12 69 20 6 8 19 15 28 15 9 1 0 5
-19 8 -19 4 -40 3 -47 -2 -7 -5 -27 -5 -45 -1 -51 12 -100 4 -117 -17 -15 -19
-18 -19 -54 -4 -20 8 -37 16 -37 18 0 1 9 27 21 57 11 30 23 63 26 73 3 9 9
17 13 17 4 0 16 34 25 75 23 96 42 112 109 89 24 -9 50 -22 57 -30 16 -20 29
-18 29 5 0 22 -30 43 -88 60 -33 9 -42 16 -38 29 3 9 8 38 12 65 7 50 -6 64
-26 28z"/>
<path d="M5897 2304 c-8 -8 1 -24 14 -24 5 0 9 7 9 15 0 15 -12 20 -23 9z"/>
<path d="M4970 2282 c0 -26 11 -34 27 -21 20 17 16 39 -7 39 -13 0 -20 -7 -20
-18z"/>
<path d="M6543 2241 c-17 -12 -53 -64 -53 -77 0 -19 74 -18 93 1 36 35 220
-40 305 -125 27 -27 53 -50 56 -50 10 0 7 68 -4 75 -6 4 -17 21 -24 39 -17 42
-92 86 -196 116 -78 22 -161 32 -177 21z"/>
<path d="M4835 2167 c-31 -34 -65 -115 -65 -154 0 -25 1 -25 55 -21 58 5 78
19 90 67 9 37 -11 48 -27 14 -17 -36 -63 -45 -73 -13 -4 14 -1 28 9 39 9 10
16 27 16 39 0 13 6 22 15 22 8 0 15 7 15 15 0 21 -12 18 -35 -8z"/>
<path d="M4920 2144 c0 -31 2 -35 15 -24 8 7 15 23 15 36 0 15 -6 24 -15 24
-11 0 -15 -11 -15 -36z"/>
<path d="M6430 2120 c0 -6 -34 -8 -90 -4 -116 7 -126 3 -126 -42 0 -35 1 -36
34 -30 19 3 53 -1 76 -9 22 -8 50 -14 61 -13 11 1 40 -8 64 -20 25 -12 53 -22
62 -22 10 0 21 -5 24 -11 4 -6 13 -8 21 -5 7 3 26 -8 42 -24 21 -20 43 -30 78
-35 47 -6 129 -42 163 -72 15 -13 88 -66 161 -118 20 -14 94 -81 164 -149 138
-133 157 -170 58 -115 -97 55 -173 90 -246 115 -39 13 -83 33 -98 44 -15 11
-38 20 -52 20 -13 0 -43 9 -67 20 -24 11 -54 20 -67 20 -12 0 -33 7 -47 16
-13 8 -49 18 -80 21 -30 3 -58 10 -61 14 -3 5 -21 9 -41 9 -26 0 -42 8 -63 30
-26 28 -34 30 -87 29 -32 -1 -69 1 -82 6 -21 6 -23 5 -16 -23 5 -26 3 -32 -22
-44 -17 -8 -28 -21 -28 -33 0 -18 6 -20 55 -17 32 2 62 10 73 20 16 14 19 14
27 2 6 -8 10 -17 10 -20 0 -3 22 -6 50 -6 33 -2 58 -9 76 -23 15 -12 34 -21
42 -21 9 0 23 -7 33 -16 14 -13 22 -13 39 -4 18 10 29 9 56 -6 20 -11 34 -26
34 -37 0 -10 5 -15 11 -12 19 12 203 -37 309 -83 25 -10 59 -21 75 -25 41 -8
170 -80 225 -126 25 -20 62 -47 82 -59 41 -26 74 -75 84 -127 6 -32 4 -35 -17
-35 -14 0 -37 11 -52 25 -15 14 -69 54 -120 88 -50 34 -96 67 -100 74 -4 7
-17 13 -28 13 -11 0 -52 16 -92 35 -39 19 -77 35 -84 35 -7 0 -28 11 -47 24
-34 23 -127 43 -146 31 -6 -3 -10 -1 -10 4 0 6 -6 11 -14 11 -7 0 -20 9 -27
19 -16 23 -80 33 -86 14 -3 -7 2 -13 11 -13 9 0 16 -5 16 -10 0 -6 11 -15 25
-20 14 -5 30 -21 35 -34 6 -18 21 -28 52 -36 39 -11 137 -59 164 -81 6 -5 37
-18 69 -29 31 -11 72 -29 90 -40 18 -11 40 -20 49 -20 9 0 16 -4 16 -9 0 -18
68 -51 104 -51 49 0 176 -59 176 -82 0 -9 5 -20 10 -23 6 -3 10 -19 10 -34 0
-34 23 -56 70 -68 25 -6 40 -18 52 -43 9 -18 33 -50 53 -70 19 -19 35 -41 35
-48 0 -6 9 -16 20 -22 11 -6 20 -17 20 -25 0 -20 -7 -19 -37 5 -14 11 -33 20
-42 20 -9 0 -36 11 -60 25 -23 14 -54 25 -67 25 -14 0 -41 17 -70 45 -25 25
-57 47 -70 50 -13 3 -35 7 -49 10 -14 3 -25 12 -25 19 0 17 -54 46 -85 46 -12
0 -34 14 -50 30 -16 17 -34 30 -39 30 -6 0 -33 11 -61 24 -37 19 -53 22 -63
13 -10 -8 -16 -7 -23 4 -5 8 -9 18 -9 23 0 4 -11 5 -25 2 -18 -5 -27 -2 -31 8
-8 22 -38 28 -68 15 -30 -14 -34 -37 -8 -46 9 -4 33 -16 52 -29 20 -12 49 -21
65 -21 19 -1 34 -8 43 -22 8 -11 25 -21 37 -21 35 0 79 -27 85 -52 3 -14 21
-31 43 -41 32 -16 40 -17 54 -6 14 12 15 11 9 -7 -5 -18 3 -25 59 -53 36 -18
82 -48 102 -66 33 -30 45 -34 112 -40 79 -7 139 -35 189 -87 11 -13 41 -39 65
-58 46 -37 82 -78 74 -86 -2 -2 -17 2 -33 11 -33 17 -74 20 -74 5 0 -10 89
-77 132 -99 14 -7 41 -33 59 -57 37 -50 54 -56 44 -17 -9 39 -36 93 -45 93 -4
0 -15 24 -24 52 -10 29 -30 72 -47 95 -16 23 -29 45 -29 50 0 5 -11 20 -25 33
-14 13 -25 32 -25 41 0 11 -5 16 -13 13 -10 -3 -12 4 -9 29 2 21 -4 45 -17 68
-11 19 -34 61 -51 94 -17 33 -44 78 -60 100 -16 22 -29 46 -30 54 0 8 -16 38
-35 67 -19 29 -35 59 -35 68 0 18 -110 179 -147 214 -13 13 -22 29 -20 35 11
32 -138 270 -190 304 -12 8 -25 23 -28 33 -3 10 -45 43 -93 74 -100 63 -141
91 -183 125 -35 28 -108 51 -162 51 -30 0 -40 4 -44 20 -3 11 -8 20 -12 20 -3
1 -31 2 -62 4 -67 3 -75 7 -82 46 -6 27 -37 45 -37 20z"/>
<path d="M2660 2056 c0 -26 4 -36 16 -36 11 0 14 8 12 32 -4 46 -28 49 -28 4z"/>
<path d="M5386 2061 c-10 -16 5 -41 25 -41 22 0 23 4 9 31 -11 20 -25 25 -34
10z"/>
<path d="M5830 2040 c-12 -7 -12 -12 0 -34 17 -32 30 -33 30 -3 0 32 -13 48
-30 37z"/>
<path d="M2694 1954 c16 -120 48 -164 54 -76 2 33 -1 43 -17 52 -14 7 -21 21
-21 40 0 17 -5 30 -11 30 -8 0 -10 -15 -5 -46z"/>
<path d="M3748 1964 c-4 -20 -104 -55 -135 -48 -33 9 -30 -22 7 -66 17 -19 30
-44 30 -55 0 -12 7 -30 15 -41 8 -10 15 -29 15 -41 0 -12 7 -28 15 -37 8 -8
15 -20 15 -26 0 -15 39 -91 58 -112 25 -29 32 -21 32 34 0 42 -5 57 -25 78
-30 31 -85 136 -85 162 0 23 27 35 49 21 9 -5 32 -8 52 -5 l37 4 -5 61 c-3 34
-10 68 -16 75 -14 17 -55 15 -59 -4z m52 -69 c0 -14 -7 -28 -15 -32 -22 -8
-28 2 -21 32 8 33 36 33 36 0z"/>
<path d="M6196 1951 c-22 -24 -13 -41 22 -41 15 0 52 -7 82 -15 70 -19 100
-19 100 -1 0 13 -31 26 -170 72 -9 3 -24 -4 -34 -15z"/>
<path d="M6920 1963 c0 -14 50 -56 58 -49 4 4 -1 13 -11 20 -9 7 -17 18 -17
25 0 6 -7 11 -15 11 -8 0 -15 -3 -15 -7z"/>
<path d="M3494 1855 c-7 -19 -14 -40 -14 -47 1 -21 50 41 50 63 0 31 -20 22
-36 -16z"/>
<path d="M5603 1871 c-8 -13 -19 -18 -33 -14 -14 4 -20 1 -20 -12 0 -14 6 -16
32 -11 39 8 40 9 36 36 -3 20 -3 20 -15 1z"/>
<path d="M5415 1853 c-11 -2 -31 -6 -45 -9 l-25 -6 25 -10 c27 -10 110 -2 110
12 0 8 -26 21 -38 19 -4 -1 -16 -3 -27 -6z"/>
<path d="M5690 1783 c-8 -3 -23 -12 -32 -21 -10 -8 -24 -12 -33 -9 -9 4 -15 1
-15 -7 0 -7 13 -16 28 -19 25 -5 29 -11 29 -39 0 -46 -12 -58 -53 -51 -21 3
-34 1 -34 -5 0 -6 -13 -13 -30 -17 -35 -8 -40 -25 -7 -24 12 0 61 8 109 17
l88 17 -24 25 c-31 32 -43 70 -23 70 17 0 32 17 41 48 6 17 3 22 -11 21 -10 0
-25 -3 -33 -6z"/>
<path d="M2744 1765 c-7 -17 4 -37 17 -30 12 8 12 45 -1 45 -6 0 -13 -7 -16
-15z"/>
<path d="M5423 1761 c-18 -9 -33 -19 -33 -23 0 -12 48 -9 70 4 15 10 22 9 39
-6 21 -19 41 -14 41 10 0 15 -40 35 -68 33 -9 -1 -32 -9 -49 -18z"/>
<path d="M5228 1743 c-14 -2 -32 -11 -39 -19 -11 -13 -4 -14 56 -10 79 7 105
13 105 27 0 9 -69 10 -122 2z"/>
<path d="M2787 1693 c-13 -13 -7 -50 11 -66 35 -32 43 -12 16 41 -17 35 -17
35 -27 25z"/>
<path d="M4650 1682 c0 -24 8 -32 26 -25 20 7 17 20 -6 33 -17 9 -20 8 -20 -8z"/>
<path d="M5580 1684 c0 -17 22 -14 28 4 2 7 -3 12 -12 12 -9 0 -16 -7 -16 -16z"/>
<path d="M4400 1660 c0 -11 -4 -20 -10 -20 -15 0 -50 -80 -50 -115 0 -17 -7
-41 -16 -53 -8 -12 -14 -30 -12 -40 1 -9 -4 -32 -11 -50 -10 -23 -11 -36 -3
-44 17 -17 32 1 32 41 0 22 6 44 15 51 8 7 15 18 15 25 0 7 8 23 19 36 10 14
20 49 24 83 3 32 11 64 16 69 16 16 13 37 -4 37 -8 0 -15 -9 -15 -20z"/>
<path d="M5150 1624 c0 -17 22 -14 28 4 2 7 -3 12 -12 12 -9 0 -16 -7 -16 -16z"/>
<path d="M5420 1599 c0 -24 23 -21 28 4 2 10 -3 17 -12 17 -10 0 -16 -9 -16
-21z"/>
<path d="M3440 1591 c0 -12 5 -21 10 -21 6 0 10 6 10 14 0 8 -4 18 -10 21 -5
3 -10 -3 -10 -14z"/>
<path d="M5092 1590 c-7 -11 -21 -20 -31 -20 -23 0 -36 -16 -21 -25 16 -10 70
24 70 45 0 25 -2 25 -18 0z"/>
<path d="M6223 1568 c-15 -26 74 -52 152 -46 59 5 79 16 70 39 -4 11 -29 14
-111 14 -58 0 -108 -3 -111 -7z"/>
<path d="M6596 1573 c-11 -11 -6 -23 9 -23 8 0 15 4 15 9 0 13 -16 22 -24 14z"/>
<path d="M3470 1501 c0 -24 25 -45 45 -37 12 4 11 10 -9 31 -28 30 -36 31 -36
6z"/>
<path d="M2646 1494 c-10 -26 -7 -34 13 -34 18 0 35 33 23 44 -11 11 -30 6
-36 -10z"/>
<path d="M4572 1490 c13 -21 38 -27 38 -10 0 6 -7 10 -15 10 -8 0 -15 5 -15
10 0 6 -5 10 -10 10 -6 0 -5 -8 2 -20z"/>
<path d="M2574 1477 c-7 -20 -2 -47 11 -50 14 -3 19 43 6 56 -7 7 -12 6 -17
-6z"/>
<path d="M5114 1466 c21 -17 14 -36 -15 -36 -10 0 -19 -4 -19 -10 0 -5 14 -10
31 -10 28 0 30 2 27 32 -2 24 -9 34 -23 36 -19 3 -19 2 -1 -12z"/>
<path d="M3628 1443 c12 -2 30 -2 40 0 9 3 -1 5 -23 4 -22 0 -30 -2 -17 -4z"/>
<path d="M5220 1431 c0 -12 6 -21 15 -21 8 0 15 4 15 9 0 5 -7 14 -15 21 -13
10 -15 9 -15 -9z"/>
<path d="M6200 1440 c0 -13 94 -60 120 -60 11 0 20 5 20 10 0 6 -6 10 -13 10
-7 0 -29 11 -49 25 -37 25 -78 33 -78 15z"/>
<path d="M2660 1410 c0 -11 5 -20 10 -20 6 0 10 9 10 20 0 11 -4 20 -10 20 -5
0 -10 -9 -10 -20z"/>
<path d="M4910 1420 l-25 -8 28 -3 c15 -1 32 -2 39 -3 6 -1 13 5 16 12 4 13
-19 14 -58 2z"/>
<path d="M2924 1365 c-3 -8 -3 -19 1 -25 11 -18 25 -11 25 15 0 27 -17 34 -26
10z"/>
<path d="M6120 1336 c0 -19 6 -36 13 -39 7 -3 19 -23 25 -45 7 -22 19 -45 27
-52 8 -7 15 -19 15 -27 0 -15 40 -73 51 -73 4 0 9 12 12 27 4 22 -2 35 -29 61
-19 18 -34 39 -34 46 0 6 -11 27 -25 46 -14 19 -25 44 -25 56 0 12 -7 24 -15
28 -12 4 -15 -2 -15 -28z"/>
<path d="M4272 1298 c-14 -14 -16 -38 -4 -38 12 0 32 23 32 37 0 16 -12 17
-28 1z"/>
<path d="M4485 1300 c-3 -5 3 -10 14 -10 12 0 21 5 21 10 0 6 -6 10 -14 10 -8
0 -18 -4 -21 -10z"/>
<path d="M2927 1293 c-15 -14 -5 -32 27 -52 41 -26 56 -26 56 -3 0 35 -62 76
-83 55z"/>
<path d="M3766 1246 c-9 -14 -16 -31 -16 -38 0 -7 10 2 21 20 12 18 19 35 17
38 -3 2 -13 -7 -22 -20z"/>
<path d="M5124 1259 c-3 -6 -1 -16 5 -22 8 -8 11 -5 11 11 0 24 -5 28 -16 11z"/>
<path d="M6641 1243 c1 -15 56 -52 80 -54 13 -1 42 -1 64 0 37 2 39 3 21 16
-11 8 -29 12 -42 9 -15 -4 -36 2 -57 15 -34 21 -67 28 -66 14z"/>
<path d="M3853 1223 c-7 -2 -13 -11 -13 -18 0 -7 -7 -15 -15 -19 -8 -3 -15
-16 -15 -28 0 -13 -9 -29 -19 -35 -13 -8 -18 -19 -14 -33 6 -23 8 -24 34 -9
11 5 17 15 13 21 -4 5 -2 13 3 17 12 7 53 86 53 101 0 11 -7 12 -27 3z"/>
<path d="M3025 1173 c-5 -21 -1 -31 17 -44 18 -15 24 -15 26 -4 3 13 -24 75
-32 75 -2 0 -7 -12 -11 -27z"/>
<path d="M4250 1185 c0 -8 5 -15 10 -15 6 0 10 7 10 15 0 8 -4 15 -10 15 -5 0
-10 -7 -10 -15z"/>
<path d="M5470 1129 c0 -24 23 -21 28 4 2 10 -3 17 -12 17 -10 0 -16 -9 -16
-21z"/>
<path d="M4217 1124 c-4 -4 -7 -17 -7 -28 0 -19 1 -19 17 -3 12 11 14 20 7 27
-6 6 -13 7 -17 4z"/>
<path d="M6620 1116 c0 -17 27 -29 35 -16 4 6 3 15 0 20 -9 15 -35 12 -35 -4z"/>
<path d="M4380 1090 c0 -16 5 -30 10 -30 6 0 10 14 10 30 0 17 -4 30 -10 30
-5 0 -10 -13 -10 -30z"/>
<path d="M5103 1099 c-4 -12 -17 -22 -35 -26 -30 -6 -42 -18 -43 -43 0 -8 -11
-20 -23 -26 -13 -6 -29 -17 -35 -23 -8 -8 -15 -6 -28 5 -16 15 -20 14 -43 -10
-14 -14 -26 -34 -26 -46 0 -24 26 -38 43 -21 6 6 23 11 38 11 33 0 91 24 109
44 7 9 18 16 26 16 7 0 15 8 19 18 3 9 20 26 38 37 17 11 33 29 35 40 2 11 10
25 17 31 11 8 2 11 -36 12 -43 1 -52 -2 -56 -19z"/>
<path d="M3082 1058 c6 -18 28 -21 28 -4 0 9 -7 16 -16 16 -9 0 -14 -5 -12
-12z"/>
<path d="M4195 1050 c-4 -14 -18 -40 -32 -58 -26 -34 -25 -66 1 -56 16 6 51
105 44 126 -3 8 -8 3 -13 -12z"/>
<path d="M3742 994 c4 -21 22 -23 26 -1 2 10 -3 17 -13 17 -10 0 -15 -6 -13
-16z"/>
<path d="M3848 973 c-22 -6 -51 -51 -44 -69 4 -12 14 -10 51 8 34 17 50 20 62
12 29 -18 39 -42 27 -61 -17 -28 -39 -26 -53 3 -14 32 -31 22 -34 -22 -1 -16
-8 -34 -16 -40 -22 -17 -4 -34 37 -34 28 0 46 8 75 35 21 19 47 35 58 35 10 0
19 5 19 10 0 6 -8 10 -17 8 -13 -2 -19 5 -21 22 -2 14 -20 42 -40 63 -35 36
-57 43 -104 30z"/>
<path d="M4822 909 c2 -6 8 -10 13 -10 5 0 11 4 13 10 2 6 -4 11 -13 11 -9 0
-15 -5 -13 -11z"/>
<path d="M2770 885 c0 -8 7 -15 15 -15 8 0 15 4 15 9 0 5 -7 11 -15 15 -9 3
-15 0 -15 -9z"/>
<path d="M6000 885 c-16 -20 -6 -45 19 -45 20 0 37 32 26 50 -9 15 -31 12 -45
-5z"/>
<path d="M2036 772 c-8 -13 11 -35 23 -28 6 4 11 11 11 16 0 11 -28 21 -34 12z"/>
<path d="M3330 669 c0 -32 22 -80 35 -75 14 4 8 31 -16 69 -19 32 -19 32 -19
6z"/>
<path d="M4920 624 c0 -17 22 -14 28 4 2 7 -3 12 -12 12 -9 0 -16 -7 -16 -16z"/>
<path d="M6656 613 c-11 -11 -6 -23 9 -23 8 0 15 4 15 9 0 13 -16 22 -24 14z"/>
<path d="M2160 576 c0 -28 14 -35 23 -12 3 8 -1 20 -9 26 -12 10 -14 8 -14
-14z"/>
<path d="M3380 572 c0 -10 16 -42 36 -72 19 -30 40 -65 45 -77 4 -13 13 -23
19 -23 5 0 10 -7 10 -15 0 -8 16 -29 35 -46 19 -18 35 -38 35 -46 0 -7 23 -35
50 -62 28 -27 50 -54 50 -61 0 -6 15 -26 33 -43 17 -18 37 -41 42 -51 9 -16
14 -17 33 -7 31 17 28 34 -15 73 -21 19 -65 67 -98 108 -32 41 -76 92 -97 112
-21 20 -38 43 -38 50 0 8 -20 33 -45 56 -29 27 -43 47 -39 57 4 8 -4 26 -17
40 -28 29 -39 31 -39 7z"/>
<path d="M4796 582 c-7 -12 4 -72 14 -72 15 0 34 31 24 38 -6 4 -15 15 -21 26
-6 11 -13 14 -17 8z"/>
<path d="M4691 551 c-12 -8 -12 -14 -1 -43 18 -45 17 -44 39 -17 25 29 27 55
5 63 -21 8 -26 7 -43 -3z"/>
<path d="M5385 530 c-3 -5 -15 -10 -27 -10 -11 0 -22 -8 -25 -20 -6 -21 -28
-27 -38 -10 -4 6 -24 -5 -49 -25 -24 -19 -48 -35 -55 -35 -23 0 -61 -32 -61
-52 0 -16 5 -18 38 -12 50 9 89 30 102 54 6 11 19 20 29 20 10 0 30 9 44 20
14 11 34 20 46 20 26 0 49 39 30 51 -18 11 -27 11 -34 -1z"/>
<path d="M7645 520 c3 -5 13 -10 21 -10 8 0 12 5 9 10 -3 6 -13 10 -21 10 -8
0 -12 -4 -9 -10z"/>
<path d="M4631 513 c-13 -3 -26 -13 -28 -24 -5 -18 -32 -32 -51 -27 -5 2 -25
-14 -45 -34 -20 -21 -40 -38 -45 -38 -5 0 -16 -7 -23 -16 -7 -9 -24 -20 -36
-25 -13 -5 -28 -20 -33 -34 -7 -19 -17 -25 -40 -25 -27 0 -30 -3 -30 -29 0
-23 -5 -30 -22 -33 -25 -3 -37 -43 -20 -60 13 -13 26 -5 112 72 40 36 91 76
114 89 23 14 52 35 66 48 14 13 30 23 36 23 6 0 17 7 24 15 9 11 16 12 26 4 7
-6 17 -8 22 -5 10 6 14 107 4 105 -4 -1 -18 -4 -31 -6z"/>
<path d="M3947 464 c-8 -8 1 -24 14 -24 5 0 9 7 9 15 0 15 -12 20 -23 9z"/>
<path d="M4700 435 c0 -8 5 -15 10 -15 6 0 10 7 10 15 0 8 -4 15 -10 15 -5 0
-10 -7 -10 -15z"/>
<path d="M5055 410 c-3 -5 -14 -10 -25 -10 -10 0 -32 -14 -50 -30 -18 -17 -42
-33 -54 -36 -11 -3 -38 -22 -60 -44 -21 -21 -51 -42 -67 -45 -16 -4 -35 -14
-41 -24 -13 -18 -73 -51 -91 -51 -6 0 -26 -18 -45 -40 -19 -23 -37 -38 -40
-35 -3 3 -15 -3 -26 -13 -12 -10 -55 -29 -96 -41 -112 -35 -112 -36 -11 -39
77 -2 96 0 103 13 6 9 23 15 48 15 29 0 42 5 50 20 6 11 17 20 24 20 8 0 19 7
26 15 7 8 21 15 30 15 10 0 33 12 50 27 18 15 42 28 53 28 11 1 34 18 51 38
17 21 36 37 41 37 6 0 21 12 35 26 13 14 34 30 47 35 12 4 31 26 43 49 11 22
25 40 30 40 6 0 10 9 10 20 0 21 -24 28 -35 10z"/>
<path d="M7090 391 c0 -11 26 -22 34 -14 3 3 3 10 0 14 -7 12 -34 11 -34 0z"/>
<path d="M1522 371 c2 -7 7 -12 11 -12 12 1 9 15 -3 20 -7 2 -11 -2 -8 -8z"/>
<path d="M5780 336 c0 -17 14 -29 23 -20 8 8 -3 34 -14 34 -5 0 -9 -6 -9 -14z"/>
<path d="M5467 323 c-12 -11 -8 -23 8 -23 8 0 15 7 15 15 0 16 -12 20 -23 8z"/>
<path d="M5394 259 c-8 -14 -7 -56 3 -72 2 -4 20 9 39 29 19 21 33 39 31 40
-12 13 -66 14 -73 3z"/>
<path d="M2032 209 c2 -6 8 -10 13 -10 5 0 11 4 13 10 2 6 -4 11 -13 11 -9 0
-15 -5 -13 -11z"/>
<path d="M5295 207 c-4 -9 -15 -12 -31 -9 -20 4 -24 0 -24 -21 0 -20 -6 -27
-30 -32 -30 -7 -43 -35 -16 -35 25 0 46 12 46 26 0 8 9 14 19 14 11 0 23 5 26
10 3 6 15 10 26 10 15 0 20 6 17 22 -4 25 -26 36 -33 15z"/>
<path d="M2936 201 c-4 -6 -1 -21 6 -33 10 -20 13 -20 16 -6 5 23 -13 54 -22
39z"/>
<path d="M2366 133 c-3 -21 -6 -59 -6 -85 l0 -48 35 0 c27 0 35 4 35 18 0 10
-5 23 -12 30 -9 9 -8 18 3 38 11 21 11 28 1 31 -6 3 -9 9 -6 14 7 12 -14 39
-31 39 -7 0 -15 -17 -19 -37z"/>
<path d="M5102 138 c-13 -13 -16 -41 -6 -51 14 -13 34 7 34 34 0 31 -9 36 -28
17z"/>
<path d="M4141 122 c-14 -25 -14 -42 -1 -42 16 0 33 41 22 52 -7 7 -14 3 -21
-10z"/>
<path d="M7610 46 c0 -19 55 -46 94 -45 31 0 31 0 6 10 -13 6 -31 16 -40 23
-25 23 -60 30 -60 12z"/>
<path d="M1960 38 c0 -7 5 -20 10 -28 8 -13 11 -13 26 2 9 9 13 21 10 27 -10
15 -46 14 -46 -1z"/>
<path d="M3404 15 c-18 -14 -18 -14 9 -15 15 0 27 4 27 9 0 18 -17 20 -36 6z"/>
<path d="M6930 10 c-17 -6 -4 -8 45 -8 52 0 62 2 40 8 -39 10 -54 10 -85 0z"/>
</g>
</svg>
